<svg width="242" height="61" viewBox="0 0 242 61" fill="none" xmlns="http://www.w3.org/2000/svg">
<g filter="url(#filter0_d_24404_2456)">
<path d="M14.3876 2.82162C15.3847 1.0768 17.2402 0 19.2498 0H220.75C222.76 0 224.615 1.0768 225.612 2.82162L238.412 25.2216C239.396 26.9432 239.396 29.0568 238.412 30.7784L225.612 53.1784C224.615 54.9232 222.76 56 220.75 56H19.2498C17.2402 56 15.3847 54.9232 14.3876 53.1784L1.58764 30.7784C0.60386 29.0568 0.60386 26.9432 1.58764 25.2216L14.3876 2.82162Z" fill="url(#paint0_linear_24404_2456)"/>
<path d="M15.6032 3.51621C16.351 2.2076 17.7426 1.4 19.2498 1.4H220.75C222.257 1.4 223.649 2.2076 224.397 3.51622L237.197 25.9162C237.935 27.2074 237.935 28.7926 237.197 30.0838L224.397 52.4838C223.649 53.7924 222.257 54.6 220.75 54.6H19.2498C17.7426 54.6 16.351 53.7924 15.6032 52.4838L2.80318 30.0838C2.06535 28.7926 2.06535 27.2074 2.80318 25.9162L15.6032 3.51621Z" stroke="#FCD69B" stroke-width="2.8"/>
</g>
<path d="M79.7852 24.6816C79.3294 24.6816 78.9225 24.7793 78.5645 24.9746C78.2064 25.1634 77.9004 25.4401 77.6465 25.8047C77.3926 26.1693 77.1973 26.6152 77.0605 27.1426C76.9303 27.6634 76.8652 28.2559 76.8652 28.9199C76.8652 29.8184 76.9792 30.5736 77.207 31.1855C77.4349 31.7975 77.7799 32.2598 78.2422 32.5723C78.7109 32.8848 79.2969 33.041 80 33.041C80.638 33.041 81.25 32.9531 81.8359 32.7773C82.4284 32.6016 83.0241 32.39 83.623 32.1426V35.4043C82.9915 35.6842 82.3438 35.8861 81.6797 36.0098C81.0221 36.1335 80.3223 36.1953 79.5801 36.1953C78.0306 36.1953 76.7611 35.8893 75.7715 35.2773C74.7884 34.6589 74.0625 33.8027 73.5938 32.709C73.1315 31.6152 72.9004 30.3457 72.9004 28.9004C72.9004 27.8197 73.0501 26.8301 73.3496 25.9316C73.6556 25.0332 74.1016 24.2552 74.6875 23.5977C75.2734 22.9336 75.9961 22.4225 76.8555 22.0645C77.7214 21.6999 78.7109 21.5176 79.8242 21.5176C80.5143 21.5176 81.2402 21.599 82.002 21.7617C82.7702 21.918 83.5189 22.1719 84.248 22.5234L83.0664 25.5605C82.5456 25.3132 82.0182 25.1048 81.4844 24.9355C80.9505 24.7663 80.3841 24.6816 79.7852 24.6816ZM99.7754 28.8418C99.7754 29.9421 99.6419 30.9447 99.375 31.8496C99.1146 32.748 98.7044 33.5228 98.1445 34.1738C97.5846 34.8249 96.8652 35.3262 95.9863 35.6777C95.1074 36.0228 94.056 36.1953 92.832 36.1953C91.6341 36.1953 90.5957 36.0228 89.7168 35.6777C88.8444 35.3262 88.125 34.8281 87.5586 34.1836C86.9922 33.5326 86.5723 32.7546 86.2988 31.8496C86.0254 30.9447 85.8887 29.9355 85.8887 28.8223C85.8887 27.3379 86.1328 26.0488 86.6211 24.9551C87.1159 23.8548 87.8776 23.0052 88.9062 22.4062C89.9349 21.8008 91.25 21.498 92.8516 21.498C94.4792 21.498 95.8008 21.8008 96.8164 22.4062C97.8385 23.0117 98.5872 23.8646 99.0625 24.9648C99.5378 26.0651 99.7754 27.3574 99.7754 28.8418ZM89.9512 28.8418C89.9512 29.7012 90.0488 30.4401 90.2441 31.0586C90.4395 31.6771 90.7487 32.1523 91.1719 32.4844C91.5951 32.8164 92.1484 32.9824 92.832 32.9824C93.5417 32.9824 94.1048 32.8164 94.5215 32.4844C94.9447 32.1523 95.2474 31.6771 95.4297 31.0586C95.6185 30.4401 95.7129 29.7012 95.7129 28.8418C95.7129 27.5527 95.498 26.5339 95.0684 25.7852C94.6387 25.0365 93.8997 24.6621 92.8516 24.6621C92.1549 24.6621 91.5918 24.8314 91.1621 25.1699C90.7389 25.5085 90.4297 25.9902 90.2344 26.6152C90.0456 27.2402 89.9512 27.9824 89.9512 28.8418ZM115.947 36H110.889L105.674 25.9414H105.586C105.618 26.2474 105.648 26.6152 105.674 27.0449C105.7 27.4746 105.723 27.9141 105.742 28.3633C105.762 28.806 105.771 29.2064 105.771 29.5645V36H102.354V21.7227H107.393L112.588 31.6445H112.646C112.627 31.332 112.607 30.9707 112.588 30.5605C112.568 30.1439 112.549 29.724 112.529 29.3008C112.516 28.8776 112.51 28.5033 112.51 28.1777V21.7227H115.947V36ZM122.832 36H119.033V21.7227H127.471V24.8184H122.832V27.543H127.109V30.6387H122.832V36ZM129.814 36V21.7227H133.691V36H129.814ZM141.465 21.7227C142.76 21.7227 143.838 21.8822 144.697 22.2012C145.557 22.5137 146.201 22.9824 146.631 23.6074C147.067 24.2324 147.285 25.0104 147.285 25.9414C147.285 26.5208 147.188 27.0482 146.992 27.5234C146.797 27.9987 146.517 28.4251 146.152 28.8027C145.794 29.1738 145.365 29.4993 144.863 29.7793L149.023 36H144.648L141.621 30.8047H140.645V36H136.787V21.7227H141.465ZM141.406 24.6426H140.645V27.9043H141.367C141.96 27.9043 142.445 27.7741 142.822 27.5137C143.2 27.2533 143.389 26.7878 143.389 26.1172C143.389 25.6549 143.232 25.2936 142.92 25.0332C142.607 24.7728 142.103 24.6426 141.406 24.6426ZM156.543 36L153.623 25.7168H153.535C153.561 25.9837 153.587 26.3451 153.613 26.8008C153.646 27.2565 153.675 27.748 153.701 28.2754C153.727 28.8027 153.74 29.3105 153.74 29.7988V36H150.322V21.7227H155.459L158.438 31.8594H158.516L161.436 21.7227H166.582V36H163.037V29.7402C163.037 29.291 163.044 28.8092 163.057 28.2949C163.076 27.7741 163.096 27.2858 163.115 26.8301C163.141 26.3678 163.164 26.0033 163.184 25.7363H163.096L160.215 36H156.543Z" fill="#A37C3C"/>
<defs>
<filter id="filter0_d_24404_2456" x="0.849609" y="0" width="241.101" height="60.2" filterUnits="userSpaceOnUse" color-interpolation-filters="sRGB">
<feFlood flood-opacity="0" result="BackgroundImageFix"/>
<feColorMatrix in="SourceAlpha" type="matrix" values="0 0 0 0 0 0 0 0 0 0 0 0 0 0 0 0 0 0 127 0" result="hardAlpha"/>
<feOffset dx="2.8" dy="4.2"/>
<feComposite in2="hardAlpha" operator="out"/>
<feColorMatrix type="matrix" values="0 0 0 0 0.788348 0 0 0 0 0.491558 0 0 0 0 0 0 0 0 1 0"/>
<feBlend mode="normal" in2="BackgroundImageFix" result="effect1_dropShadow_24404_2456"/>
<feBlend mode="normal" in="SourceGraphic" in2="effect1_dropShadow_24404_2456" result="shape"/>
</filter>
<linearGradient id="paint0_linear_24404_2456" x1="6.15384" y1="28" x2="191.9" y2="122.522" gradientUnits="userSpaceOnUse">
<stop stop-color="#DBB346"/>
<stop offset="0.359079" stop-color="#FFE7A7"/>
<stop offset="0.57078" stop-color="#FFCF4B"/>
<stop offset="0.76629" stop-color="#FFF4D1"/>
<stop offset="1" stop-color="#E4B73D"/>
</linearGradient>
</defs>
</svg>
