<svg width="28" height="29" viewBox="0 0 28 29" fill="none" xmlns="http://www.w3.org/2000/svg">
<g clip-path="url(#clip0_22414_10297)">
<path d="M2.96498 14.5793C2.96498 14.5793 4.0712 16.2044 6.38973 17.5801C6.38973 17.5801 4.71055 3.38854 15.6515 0.923828C12.8484 11.2117 19.2171 14.113 21.5387 8.67775C25.4156 13.854 22.472 18.37 22.472 18.37C24.0617 18.599 25.397 16.8622 25.397 16.8622C25.409 17.0762 25.4156 17.2916 25.4156 17.5085C25.4157 23.813 20.3049 28.9238 14.0003 28.9238C7.69578 28.9238 2.58496 23.813 2.58496 17.5085C2.58496 16.4958 2.71752 15.5141 2.96498 14.5793Z" fill="#FF6536"/>
<path d="M25.3968 16.8622C25.3968 16.8622 24.0614 18.599 22.4717 18.37C22.4717 18.37 25.4154 13.854 21.5384 8.67775C19.2169 14.113 12.8481 11.2117 15.6512 0.923828C15.0653 1.05584 14.5158 1.22171 14 1.417V28.9238C20.3045 28.9238 25.4154 23.813 25.4154 17.5085C25.4154 17.2915 25.4087 17.0762 25.3968 16.8622Z" fill="#FF421D"/>
<path d="M8.99414 23.9166C8.99414 26.6815 11.2356 28.9229 14.0005 28.9229C16.7653 28.9229 19.0068 26.6815 19.0068 23.9166C19.0068 22.4367 18.3647 21.1068 17.3438 20.1903C15.4082 22.8199 12.6499 18.831 14.7995 15.918C14.7995 15.918 8.99414 16.6455 8.99414 23.9166Z" fill="#FBBF00"/>
<path d="M19.0063 23.9166C19.0063 22.4367 18.3642 21.1068 17.3434 20.1903C15.4078 22.8199 12.6494 18.831 14.7991 15.918C14.7991 15.918 14.4837 15.9576 14 16.1102V28.9229C16.7649 28.9229 19.0063 26.6815 19.0063 23.9166Z" fill="#FFA900"/>
</g>
<defs>
<clipPath id="clip0_22414_10297">
<rect width="28" height="28" fill="white" transform="translate(0 0.923828)"/>
</clipPath>
</defs>
</svg>
