<svg width="40" height="40" viewBox="0 0 40 40" fill="none" xmlns="http://www.w3.org/2000/svg">
<path d="M28.5318 12.3302C30.4459 10.4161 33.4381 10.088 35.024 10.0646C35.6568 10.0567 36.1178 10.5177 36.11 11.1505C36.0787 12.7286 35.7584 15.7208 33.8443 17.6427C31.9303 19.5646 28.9381 19.8849 27.3521 19.9083C26.7193 19.9161 26.2584 19.4552 26.2662 18.8224C26.2975 17.2442 26.6178 14.2442 28.5318 12.3302Z" fill="url(#paint0_linear_24460_761)"/>
<path d="M30.3445 16.0958C32.696 14.7442 35.6648 15.2129 37.2038 15.5958C37.821 15.752 38.1413 16.3145 37.9695 16.9239C37.532 18.4395 36.4382 21.2442 34.0866 22.5958C31.7351 23.9473 28.7663 23.4786 27.2273 23.0958C26.6101 22.9395 26.2898 22.377 26.4616 21.7676C26.8991 20.252 28.0007 17.4473 30.3445 16.0958Z" fill="url(#paint1_linear_24460_761)"/>
<path d="M31.3914 19.4248C34.0711 19.0029 36.6805 20.5029 37.9695 21.4091C38.493 21.7763 38.5945 22.417 38.2039 22.9248C37.2508 24.1826 35.2273 26.4091 32.5477 26.831C29.868 27.2529 27.2586 25.7529 25.9695 24.8466C25.4461 24.4795 25.3445 23.8388 25.7352 23.331C26.6883 22.0732 28.7117 19.8466 31.3914 19.4248Z" fill="url(#paint2_linear_24460_761)"/>
<path d="M29.8131 22.4927C32.3678 23.399 33.9537 25.9536 34.6568 27.3677C34.9381 27.938 34.7271 28.5474 34.149 28.813C32.7115 29.4693 29.8678 30.4693 27.3131 29.563C24.7584 28.6568 23.1725 26.0943 22.4693 24.688C22.1881 24.1177 22.399 23.5005 22.9771 23.2427C24.4146 22.5786 27.2584 21.5865 29.8131 22.4927Z" fill="url(#paint3_linear_24460_761)"/>
<path d="M11.4693 12.3302C9.55527 10.4161 6.56309 10.088 4.97715 10.0646C4.34434 10.0567 3.8834 10.5177 3.89121 11.1505C3.92246 12.7286 4.24277 15.7208 6.15684 17.6427C8.0709 19.5646 11.0631 19.8849 12.649 19.9083C13.2818 19.9161 13.7428 19.4552 13.735 18.8224C13.7037 17.2442 13.3834 14.2442 11.4693 12.3302Z" fill="url(#paint4_linear_24460_761)"/>
<path d="M9.65695 16.0958C7.30539 14.7442 4.32883 15.2129 2.79758 15.5958C2.18039 15.752 1.86008 16.3145 2.03195 16.9239C2.46945 18.4395 3.5632 21.2442 5.91476 22.5958C8.26633 23.9473 11.2429 23.4786 12.7741 23.0958C13.3913 22.9395 13.7195 22.377 13.5398 21.7676C13.0945 20.252 12.0007 17.4473 9.65695 16.0958Z" fill="url(#paint5_linear_24460_761)"/>
<path d="M8.61015 19.4248C5.93828 19.0029 3.3289 20.5029 2.03203 21.4091C1.50859 21.7763 1.40703 22.417 1.79765 22.9248C2.75078 24.1826 4.77422 26.4091 7.4539 26.831C10.1336 27.2529 12.743 25.7529 14.032 24.8466C14.5555 24.4795 14.6492 23.8388 14.2742 23.331C13.3133 22.0732 11.2898 19.8466 8.61015 19.4248Z" fill="url(#paint6_linear_24460_761)"/>
<path d="M10.1879 22.4927C7.63321 23.399 6.04728 25.9536 5.34415 27.3677C5.0629 27.938 5.28165 28.5474 5.85978 28.813C7.29728 29.4693 10.141 30.4693 12.6957 29.563C15.2504 28.6568 16.8363 26.0943 17.5395 24.688C17.8207 24.1177 17.6098 23.5005 17.0238 23.2427C15.5863 22.5786 12.7426 21.5865 10.1879 22.4927Z" fill="url(#paint7_linear_24460_761)"/>
<path d="M18.5161 6.11328L11.313 9.06641C9.84424 9.66797 8.89111 11.0977 8.89111 12.6836V22.1523C8.89111 30.668 16.3208 33.3555 19.0317 34.0508C19.6724 34.2148 20.3364 34.2148 20.9771 34.0508C23.688 33.3555 31.1177 30.668 31.1177 22.1523V12.6836C31.1177 11.0977 30.1567 9.66797 28.6958 9.06641L21.4849 6.11328C20.5317 5.72266 19.4692 5.72266 18.5161 6.11328Z" fill="url(#paint8_linear_24460_761)"/>
<path d="M20.0005 32.2148C19.8364 32.2148 19.6724 32.1914 19.5161 32.1523C18.3521 31.8555 16.1021 31.1133 14.188 29.5273C11.9692 27.6836 10.8364 25.1992 10.8364 22.1523V12.6836C10.8364 11.8867 11.313 11.1758 12.0474 10.8789L19.2505 7.92578C19.4849 7.83203 19.7349 7.77734 19.9927 7.77734C20.2505 7.77734 20.5005 7.82422 20.7349 7.92578L27.938 10.8789C28.6724 11.1836 29.1489 11.8867 29.1489 12.6836V22.1523C29.1489 25.207 28.0239 27.6836 25.7974 29.5273C23.8833 31.1133 21.6411 31.8555 20.4692 32.1523C20.3286 32.1992 20.1646 32.2148 20.0005 32.2148Z" fill="#FFC31D"/>
<path d="M20.0005 27.418C24.0995 27.418 27.4224 24.0951 27.4224 19.9961C27.4224 15.8971 24.0995 12.5742 20.0005 12.5742C15.9015 12.5742 12.5786 15.8971 12.5786 19.9961C12.5786 24.0951 15.9015 27.418 20.0005 27.418Z" fill="url(#paint9_linear_24460_761)"/>
<path d="M21.6537 16.5961V23.9961H20.1137V18.6961L18.6837 18.7061V17.7761L18.9137 17.7061C19.3337 17.5861 19.6737 17.4494 19.9337 17.2961C20.1937 17.1428 20.4437 16.9394 20.6837 16.6861L20.7537 16.5961H21.6537Z" fill="#F5BB19"/>
<defs>
<linearGradient id="paint0_linear_24460_761" x1="31.1881" y1="10.0645" x2="31.1881" y2="19.9084" gradientUnits="userSpaceOnUse">
<stop stop-color="#FFC31D"/>
<stop offset="1" stop-color="#91711A"/>
</linearGradient>
<linearGradient id="paint1_linear_24460_761" x1="32.2155" y1="15.1953" x2="32.2155" y2="23.4962" gradientUnits="userSpaceOnUse">
<stop stop-color="#FFC31D"/>
<stop offset="1" stop-color="#91711A"/>
</linearGradient>
<linearGradient id="paint2_linear_24460_761" x1="31.9695" y1="19.3516" x2="31.9695" y2="26.9042" gradientUnits="userSpaceOnUse">
<stop stop-color="#FFC31D"/>
<stop offset="1" stop-color="#91711A"/>
</linearGradient>
<linearGradient id="paint3_linear_24460_761" x1="28.5631" y1="22.1289" x2="28.5631" y2="29.9254" gradientUnits="userSpaceOnUse">
<stop stop-color="#FFC31D"/>
<stop offset="1" stop-color="#91711A"/>
</linearGradient>
<linearGradient id="paint4_linear_24460_761" x1="8.81309" y1="10.0645" x2="8.81309" y2="19.9084" gradientUnits="userSpaceOnUse">
<stop stop-color="#FFC31D"/>
<stop offset="1" stop-color="#91711A"/>
</linearGradient>
<linearGradient id="paint5_linear_24460_761" x1="7.78729" y1="15.1953" x2="7.78729" y2="23.4962" gradientUnits="userSpaceOnUse">
<stop stop-color="#FFC31D"/>
<stop offset="1" stop-color="#91711A"/>
</linearGradient>
<linearGradient id="paint6_linear_24460_761" x1="8.03116" y1="19.3516" x2="8.03116" y2="26.9042" gradientUnits="userSpaceOnUse">
<stop stop-color="#FFC31D"/>
<stop offset="1" stop-color="#91711A"/>
</linearGradient>
<linearGradient id="paint7_linear_24460_761" x1="11.4425" y1="22.1289" x2="11.4425" y2="29.9254" gradientUnits="userSpaceOnUse">
<stop stop-color="#FFC31D"/>
<stop offset="1" stop-color="#91711A"/>
</linearGradient>
<linearGradient id="paint8_linear_24460_761" x1="9.46102" y1="19.9971" x2="30.9317" y2="21.9956" gradientUnits="userSpaceOnUse">
<stop stop-color="#DBB346"/>
<stop offset="0.359079" stop-color="#FFE7A7"/>
<stop offset="0.57078" stop-color="#FFCF4B"/>
<stop offset="0.76629" stop-color="#FFF4D1"/>
<stop offset="1" stop-color="#E4B73D"/>
</linearGradient>
<linearGradient id="paint9_linear_24460_761" x1="20.0005" y1="27.4184" x2="20.0005" y2="12.5746" gradientUnits="userSpaceOnUse">
<stop stop-color="#FFD86C"/>
<stop offset="1" stop-color="#FFF8E0"/>
</linearGradient>
</defs>
</svg>
