<svg width="20" height="21" viewBox="0 0 20 21" fill="none" xmlns="http://www.w3.org/2000/svg">
<path d="M12.4414 15.6973H7.55859L8.33984 13.1582H11.6602L12.4414 15.6973Z" fill="url(#paint0_linear_22414_10359)"/>
<path d="M6.28906 15.6973H13.7109C14.1406 15.6973 14.4922 16.0488 14.4922 16.4785V17.8457H5.50781V16.4785C5.50781 16.0488 5.85938 15.6973 6.28906 15.6973Z" fill="url(#paint1_linear_22414_10359)"/>
<path d="M5.01953 17.8457H14.9805C15.5742 17.8457 16.0547 18.3262 16.0547 18.9199C16.0547 19.5137 15.5742 19.9941 14.9805 19.9941H5.01953C4.42578 19.9941 3.94531 19.5137 3.94531 18.9199C3.94531 18.3301 4.42578 17.8457 5.01953 17.8457Z" fill="url(#paint2_linear_22414_10359)"/>
<path d="M16.426 6.98633C16.6214 6.98633 16.676 7.04102 16.7112 7.07617C16.7542 7.11914 16.7737 7.1543 16.7854 7.21289C16.801 7.2832 16.8167 7.43555 16.7542 7.69727C16.6096 8.31836 16.1487 9.04883 15.4925 9.70508C14.5276 10.6699 13.6253 11.0137 13.1487 11.0137C12.9534 11.0137 12.8987 10.959 12.8635 10.9238C12.8206 10.8809 12.801 10.8457 12.7893 10.7871C12.7737 10.7168 12.7581 10.5645 12.8206 10.3027C12.9651 9.68164 13.426 8.95117 14.0823 8.29492C15.0471 7.33008 15.9456 6.98633 16.426 6.98633ZM16.426 4.83789C15.2034 4.83789 13.7815 5.55664 12.5628 6.77539C10.6604 8.67774 9.97683 11.0762 11.344 12.4434C11.8362 12.9355 12.4612 13.1621 13.1487 13.1621C14.3714 13.1621 15.7932 12.4434 17.012 11.2246C18.9143 9.32227 19.5979 6.92383 18.2307 5.55664C17.7385 5.06445 17.1135 4.83789 16.426 4.83789Z" fill="url(#paint3_linear_22414_10359)"/>
<path d="M3.57448 6.98633C4.05495 6.98633 4.95339 7.33008 5.91823 8.29492C6.57448 8.95117 7.03542 9.68555 7.17995 10.3027C7.24245 10.5645 7.22683 10.7168 7.2112 10.7871C7.19948 10.8457 7.17995 10.8809 7.13698 10.9238C7.10183 10.959 7.04714 11.0137 6.85183 11.0137C6.37136 11.0137 5.47292 10.6699 4.50808 9.70508C3.85183 9.04883 3.39089 8.31836 3.24636 7.69727C3.18386 7.43555 3.19948 7.2832 3.21511 7.21289C3.22683 7.1543 3.24636 7.11914 3.28933 7.07617C3.32448 7.04102 3.37917 6.98633 3.57448 6.98633ZM3.57448 4.83789C2.88698 4.83789 2.26198 5.06445 1.7698 5.55664C0.402609 6.92383 1.0862 9.32227 2.98855 11.2246C4.2073 12.4434 5.62917 13.1621 6.85183 13.1621C7.53933 13.1621 8.16433 12.9355 8.65261 12.4434C10.0198 11.0762 9.3362 8.67774 7.43386 6.77539C6.21902 5.55664 4.79714 4.83789 3.57448 4.83789Z" fill="url(#paint4_linear_22414_10359)"/>
<path d="M4.92188 4.39258H15.0781V9.17773C15.0781 11.9824 12.8047 14.2559 10 14.2559C7.19531 14.2559 4.92188 11.9824 4.92188 9.17773V4.39258Z" fill="url(#paint5_linear_22414_10359)"/>
<path d="M4.82422 1.85352H15.1758C15.875 1.85352 16.4453 2.42383 16.4453 3.12305C16.4453 3.82227 15.875 4.39258 15.1758 4.39258H4.82422C4.125 4.39258 3.55469 3.82227 3.55469 3.11914C3.55469 2.41992 4.125 1.85352 4.82422 1.85352Z" fill="url(#paint6_linear_22414_10359)"/>
<path d="M10 11.2754C11.5102 11.2754 12.7344 10.0512 12.7344 8.54102C12.7344 7.03086 11.5102 5.80664 10 5.80664C8.48985 5.80664 7.26562 7.03086 7.26562 8.54102C7.26562 10.0512 8.48985 11.2754 10 11.2754Z" fill="url(#paint7_linear_22414_10359)"/>
<path d="M8.92578 10.3457V9.83789L9.56641 9.75977V7.47852L8.91797 7.4707V6.99023L10.4336 6.73633V9.75977L11.0742 9.83789V10.3457H8.92578Z" fill="url(#paint8_linear_22414_10359)"/>
<defs>
<linearGradient id="paint0_linear_22414_10359" x1="10.0002" y1="13.1602" x2="10.0002" y2="15.6992" gradientUnits="userSpaceOnUse">
<stop stop-color="#DE5709"/>
<stop offset="0.8" stop-color="#FDAC33"/>
</linearGradient>
<linearGradient id="paint1_linear_22414_10359" x1="10.0002" y1="17.8477" x2="10.0002" y2="15.6992" gradientUnits="userSpaceOnUse">
<stop stop-color="#3D5969"/>
<stop offset="1" stop-color="#698999"/>
</linearGradient>
<linearGradient id="paint2_linear_22414_10359" x1="10.0002" y1="19.9961" x2="10.0002" y2="17.8477" gradientUnits="userSpaceOnUse">
<stop stop-color="#FF9900"/>
<stop offset="1" stop-color="#FCD34F"/>
</linearGradient>
<linearGradient id="paint3_linear_22414_10359" x1="10.4252" y1="10.5856" x2="19.1464" y2="7.41129" gradientUnits="userSpaceOnUse">
<stop stop-color="#DE5709"/>
<stop offset="0.21" stop-color="#E46912"/>
<stop offset="0.64" stop-color="#F69929"/>
<stop offset="0.8" stop-color="#FDAC33"/>
</linearGradient>
<linearGradient id="paint4_linear_22414_10359" x1="9.57546" y1="10.5856" x2="0.854289" y2="7.41137" gradientUnits="userSpaceOnUse">
<stop stop-color="#DE5709"/>
<stop offset="0.21" stop-color="#E46912"/>
<stop offset="0.64" stop-color="#F69929"/>
<stop offset="0.8" stop-color="#FDAC33"/>
</linearGradient>
<linearGradient id="paint5_linear_22414_10359" x1="10.0002" y1="4.39063" x2="10.0002" y2="14.2539" gradientUnits="userSpaceOnUse">
<stop stop-color="#FF9900"/>
<stop offset="0.11" stop-color="#FFA200"/>
<stop offset="0.37" stop-color="#FFB300"/>
<stop offset="0.65" stop-color="#FFBD00"/>
<stop offset="1" stop-color="#FFC100"/>
</linearGradient>
<linearGradient id="paint6_linear_22414_10359" x1="10.0002" y1="4.39062" x2="10.0002" y2="1.85156" gradientUnits="userSpaceOnUse">
<stop stop-color="#FFB300"/>
<stop offset="1" stop-color="#FFDF3D"/>
</linearGradient>
<linearGradient id="paint7_linear_22414_10359" x1="10.0002" y1="11.2754" x2="10.0002" y2="5.80664" gradientUnits="userSpaceOnUse">
<stop stop-color="#FFE187"/>
<stop offset="1" stop-color="#FFF8E0"/>
</linearGradient>
<linearGradient id="paint8_linear_22414_10359" x1="9.9998" y1="10.3465" x2="9.9998" y2="6.73633" gradientUnits="userSpaceOnUse">
<stop stop-color="#FD7600"/>
<stop offset="0.71" stop-color="#FDBF30"/>
</linearGradient>
</defs>
</svg>
