<svg width="57" height="57" viewBox="0 0 57 57" fill="none" xmlns="http://www.w3.org/2000/svg">
<g clip-path="url(#clip0_40000019_172)">
<path d="M48.4148 52.4185C49.5822 52.6071 50.7344 52.9436 51.8712 53.2953C52.8347 53.5961 54.7515 54.3353 54.7515 54.3353C53.059 54.269 50.7547 54.4066 48.8838 54.8043C47.0078 55.2019 45.8659 56.1246 43.9389 56.2674C43.0468 56.3336 41.8386 55.5944 42.0476 54.5647C42.277 53.4533 43.2354 52.9436 44.2397 52.6275C45.6365 52.1891 47.0333 52.1942 48.4199 52.4185H48.4148Z" fill="url(#paint0_linear_40000019_172)"/>
<path d="M41.1147 47.7845C40.1869 47.9833 38.7952 47.9629 37.9234 47.5398C37.3219 47.2492 36.0321 46.5508 36.4502 45.6842C37.0313 44.4811 38.474 46.245 39.0195 46.6324C39.6669 47.1014 40.3755 47.4888 41.1198 47.7845" fill="url(#paint1_linear_40000019_172)"/>
<path d="M51.9884 52.2553C50.9943 50.777 49.0826 48.9876 47.3545 48.4167C46.1565 48.0241 43.5005 47.2849 42.9397 48.9978C42.1547 51.3836 46.4012 50.884 47.6552 51.0675C49.1438 51.2867 50.6018 51.6844 51.9935 52.2553" fill="url(#paint2_linear_40000019_172)"/>
<path d="M21.7887 50.7107C23.6902 52.4032 26.9732 52.5918 28.6657 50.8228C30.0319 49.3954 29.7108 46.77 27.6257 46.2399C27.1466 46.1175 26.5501 46.2297 26.2493 46.6579C25.9027 47.1524 26.1117 47.4888 25.7446 47.9782C25.4439 48.3759 24.8117 48.4116 24.3937 48.1363C23.9808 47.861 23.7667 47.3359 23.7871 46.8363C23.8227 45.7403 24.7302 44.6238 26.0046 44.216C30.1543 42.8957 33.0142 47.9986 36.3329 49.4515C38.1069 50.2264 40.2124 50.2009 41.966 49.3852C40.2379 49.6452 38.8716 49.5076 37.4238 48.7684C34.9055 47.4786 33.4373 45.1336 31.3268 43.4207C29.6088 42.029 27.7328 41.4632 25.7803 41.5192C23.4557 41.5855 21.0189 43.018 20.397 45.0062C19.9025 46.5916 19.826 48.9723 21.7836 50.7158L21.7887 50.7107Z" fill="url(#paint3_linear_40000019_172)"/>
<path d="M33.631 53.4839C34.2988 53.7235 35.038 53.6674 35.7364 53.5451C37.1689 53.2902 39.2132 52.3165 40.4418 51.5365C39.0246 51.9903 37.4799 52.2044 36.0423 51.8169C35.1808 51.5875 33.315 50.573 32.5095 51.404C31.7907 52.1483 32.9887 53.2545 33.631 53.4839Z" fill="url(#paint4_linear_40000019_172)"/>
<path d="M16.6399 41.0553C17.0273 40.4895 17.6441 40.1377 18.2661 39.8624C19.5456 39.3017 21.7275 39.0264 23.1498 39.0315C21.7632 39.4138 20.4225 40.0664 19.51 41.1726C18.9594 41.8353 18.0775 43.7062 16.961 43.4309C15.9618 43.1862 16.2626 41.5957 16.6348 41.0553H16.6399Z" fill="url(#paint5_linear_40000019_172)"/>
<path d="M30.2511 54.6157C30.5723 54.2792 30.7253 53.8561 30.8221 53.4431C31.0209 52.5918 30.9088 51.2715 30.7151 50.4456C30.6488 51.3224 30.3939 52.2248 29.7821 52.969C29.4151 53.4126 28.2885 54.2843 28.6198 54.8807C28.9155 55.416 29.9351 54.9368 30.2461 54.6157H30.2511Z" fill="url(#paint6_linear_40000019_172)"/>
<path d="M28.7218 52.2044C27.4014 53.122 25.7548 53.642 24.1898 53.331C22.8083 53.0557 21.5899 52.1585 20.7029 51.037C20.1268 50.308 19.5762 49.4107 18.679 49.2527C17.9857 49.1304 17.2618 49.5331 16.8998 50.1499C16.5379 50.7719 16.5124 51.562 16.7469 52.2451C16.9763 52.9283 17.4402 53.5094 17.9806 53.9682C21.0138 56.5426 26.5246 55.3294 28.7218 52.2044Z" fill="url(#paint7_linear_40000019_172)"/>
<path d="M14.5344 53.7541C13.5251 52.704 12.7757 51.2817 12.7094 49.7829C12.6533 48.4625 13.1325 47.183 13.8615 46.1685C14.3356 45.5109 14.9423 44.8431 14.8913 43.9917C14.8505 43.3341 14.3815 42.7376 13.8055 42.5133C13.2345 42.289 12.5871 42.4063 12.0824 42.7427C11.5777 43.0741 11.2004 43.6043 10.9405 44.1854C9.47737 47.4277 11.5675 52.2859 14.5293 53.7541" fill="url(#paint8_linear_40000019_172)"/>
<path d="M12.1385 53.9835C10.915 53.3208 9.38057 52.9181 7.89709 53.0812C6.58694 53.2239 5.42463 53.7949 4.5631 54.5341C4.00743 55.0082 3.46705 55.5995 2.61571 55.6811C1.96318 55.7423 1.28517 55.4466 0.958908 55.0184C0.632645 54.5851 0.627544 54.0498 0.856949 53.591C1.08635 53.1322 1.53497 52.7549 2.06004 52.4593C4.97092 50.8075 10.13 51.8016 12.1334 53.9886" fill="url(#paint9_linear_40000019_172)"/>
<path d="M14.3254 51.1032C14.2694 50.2672 14.4886 49.4311 15.0697 48.8857C15.5846 48.4065 16.3391 48.1872 17.114 48.1822C17.6136 48.1822 18.1845 48.2331 18.5108 47.9171C18.7606 47.6724 18.781 47.2441 18.5923 46.9026C18.4037 46.5559 18.0469 46.2959 17.6645 46.1736C17.2822 46.0512 16.8846 46.0563 16.5175 46.1328C14.4733 46.561 13.4894 49.2119 14.3254 51.1032Z" fill="url(#paint10_linear_40000019_172)"/>
<path d="M11.2718 51.8883C10.0891 50.986 8.60053 49.528 8.63112 47.5857C8.65151 46.301 8.85033 45.6995 8.62602 45.2254C8.45269 44.8583 8.04486 44.7054 7.66253 44.8227C7.28019 44.9348 6.93863 45.2815 6.72452 45.6893C6.51041 46.0971 6.41355 46.5661 6.39826 47.0198C6.3014 49.5433 8.53936 51.1083 11.2718 51.8934V51.8883Z" fill="url(#paint11_linear_40000019_172)"/>
<path d="M53.1509 47.9778C53.3395 49.1452 53.676 50.2973 54.0277 51.4342C54.3285 52.3977 55.0677 54.3145 55.0677 54.3145C55.0014 52.622 55.1391 50.3177 55.5367 48.4468C55.9343 46.5708 56.857 45.4289 56.9998 43.5019C57.0661 42.6098 56.3269 41.4016 55.2971 41.6106C54.1858 41.84 53.676 42.7984 53.3599 43.8027C52.9215 45.1995 52.9266 46.5963 53.1509 47.9829V47.9778Z" fill="url(#paint12_linear_40000019_172)"/>
<path d="M48.522 40.6828C48.7209 39.755 48.7005 38.3632 48.2773 37.4915C47.9868 36.89 47.2884 35.6002 46.4217 36.0182C45.2186 36.5994 46.9825 38.0421 47.3699 38.5876C47.8389 39.235 48.2264 39.9436 48.522 40.6879" fill="url(#paint13_linear_40000019_172)"/>
<path d="M52.9878 51.5514C51.5094 50.5573 49.72 48.6456 49.1491 46.9175C48.7565 45.7195 48.0173 43.0635 49.7302 42.5027C52.116 41.7176 51.6164 45.9642 51.8 47.2182C52.0192 48.7068 52.4168 50.1648 52.9878 51.5565" fill="url(#paint14_linear_40000019_172)"/>
<path d="M51.4482 21.3517C53.1407 23.2532 53.3293 26.5362 51.5604 28.2287C50.133 29.5949 47.5076 29.2738 46.9774 27.1887C46.855 26.7095 46.9672 26.1131 47.3954 25.8123C47.8899 25.4657 48.2264 25.6747 48.7158 25.3076C49.1134 25.0068 49.1491 24.3747 48.8738 23.9567C48.5985 23.5438 48.0734 23.3297 47.5738 23.35C46.4778 23.3857 45.3614 24.2931 44.9535 25.5676C43.6332 29.7173 48.7361 32.5772 50.189 35.8959C50.9639 37.6699 50.9384 39.7754 50.1228 41.529C50.3828 39.8008 50.2451 38.4346 49.5059 36.9868C48.2162 34.4685 45.8711 33.0003 44.1583 30.8898C42.7666 29.1718 42.2007 27.2958 42.2568 25.3433C42.323 23.0187 43.7555 20.5819 45.7437 19.96C47.3291 19.4655 49.7098 19.389 51.4533 21.3466L51.4482 21.3517Z" fill="url(#paint15_linear_40000019_172)"/>
<path d="M54.2163 33.1991C54.4559 33.8669 54.3999 34.6061 54.2775 35.3045C54.0226 36.737 53.0489 38.7813 52.269 40.0099C52.7227 38.5926 52.9368 37.048 52.5493 35.6104C52.3199 34.7489 51.3055 32.883 52.1364 32.0776C52.8807 31.3588 53.9869 32.5568 54.2163 33.1991Z" fill="url(#paint16_linear_40000019_172)"/>
<path d="M41.7878 16.2079C41.2219 16.5954 40.8701 17.2122 40.5949 17.8342C40.0341 19.1137 39.7588 21.2956 39.7639 22.7179C40.1463 21.3313 40.7988 19.9906 41.905 19.078C42.5677 18.5275 44.4386 17.6455 44.1634 16.5291C43.9187 15.5299 42.3281 15.8307 41.7878 16.2028V16.2079Z" fill="url(#paint17_linear_40000019_172)"/>
<path d="M55.3481 29.8141C55.0116 30.1353 54.5885 30.2882 54.1756 30.3851C53.3242 30.5839 52.0039 30.4718 51.178 30.278C52.0549 30.2118 52.9572 29.9569 53.7015 29.3451C54.145 28.9781 55.0167 27.8515 55.6132 28.1828C56.1484 28.4785 55.6692 29.4981 55.3481 29.809V29.8141Z" fill="url(#paint18_linear_40000019_172)"/>
<path d="M52.9368 28.2848C53.8544 26.9644 54.3744 25.3178 54.0634 23.7528C53.7881 22.3713 52.8909 21.1529 51.7694 20.2658C51.0404 19.6898 50.1432 19.1392 49.9851 18.242C49.8628 17.5487 50.2655 16.8248 50.8823 16.4628C51.5043 16.1009 52.2945 16.0754 52.9776 16.3099C53.6607 16.5393 54.2418 17.0032 54.7006 17.5436C57.2751 20.5768 56.0618 26.0876 52.9368 28.2848Z" fill="url(#paint19_linear_40000019_172)"/>
<path d="M54.4865 14.1025C53.4364 13.0931 52.0141 12.3438 50.5153 12.2775C49.195 12.2214 47.9154 12.7006 46.9009 13.4296C46.2433 13.9037 45.5755 14.5103 44.7241 14.4594C44.0665 14.4186 43.4701 13.9496 43.2457 13.3735C43.0214 12.8026 43.1387 12.1551 43.4752 11.6505C43.8065 11.1458 44.3367 10.7685 44.9178 10.5085C48.1601 9.04544 53.0183 11.1356 54.4865 14.0974" fill="url(#paint20_linear_40000019_172)"/>
<path d="M54.7159 11.7014C54.0532 10.4779 53.6505 8.94349 53.8136 7.46001C53.9564 6.14986 54.5273 4.98755 55.2665 4.12601C55.7406 3.57035 56.332 3.02997 56.4135 2.17863C56.4747 1.5261 56.179 0.848087 55.7508 0.521824C55.3175 0.19556 54.7822 0.190464 54.3234 0.419865C53.8646 0.649269 53.4874 1.09788 53.1917 1.62296C51.54 4.53384 52.5341 9.69287 54.721 11.6963" fill="url(#paint21_linear_40000019_172)"/>
<path d="M51.8356 13.8884C50.9996 13.8323 50.1635 14.0515 49.6181 14.6327C49.1389 15.1476 48.9197 15.9021 48.9146 16.6769C48.9146 17.1765 48.9656 17.7475 48.6495 18.0738C48.4048 18.3236 47.9766 18.3439 47.635 18.1553C47.2884 17.9667 47.0284 17.6099 46.906 17.2275C46.7837 16.8452 46.7888 16.4475 46.8652 16.0805C47.2935 14.0363 49.9443 13.0524 51.8356 13.8884Z" fill="url(#paint22_linear_40000019_172)"/>
<path d="M52.6207 10.8399C51.7184 9.65719 50.2604 8.16861 48.3181 8.1992C47.0335 8.21959 46.4319 8.41841 45.9578 8.1941C45.5908 8.02077 45.4378 7.61295 45.5551 7.23061C45.6672 6.84827 46.0139 6.50671 46.4217 6.2926C46.8295 6.07849 47.2986 5.98163 47.7523 5.96634C50.2757 5.86948 51.8407 8.10744 52.6258 10.8399H52.6207Z" fill="url(#paint23_linear_40000019_172)"/>
<path d="M41.589 37.283C43.7766 37.283 45.55 39.0564 45.55 41.244C45.55 43.4317 43.7766 45.2051 41.589 45.2051C39.4013 45.2051 37.6279 43.4317 37.6279 41.244C37.6279 39.0564 39.4013 37.283 41.589 37.283Z" fill="#FED051"/>
</g>
<defs>
<linearGradient id="paint0_linear_40000019_172" x1="53.3655" y1="47.6515" x2="7.10874" y2="30.4306" gradientUnits="userSpaceOnUse">
<stop stop-color="#DBB346"/>
<stop offset="0.359079" stop-color="#FFE7A7"/>
<stop offset="0.57078" stop-color="#FFCF4B"/>
<stop offset="0.76629" stop-color="#FFF4D1"/>
<stop offset="1" stop-color="#E4B73D"/>
</linearGradient>
<linearGradient id="paint1_linear_40000019_172" x1="53.3655" y1="47.6515" x2="7.10874" y2="30.4306" gradientUnits="userSpaceOnUse">
<stop stop-color="#DBB346"/>
<stop offset="0.359079" stop-color="#FFE7A7"/>
<stop offset="0.57078" stop-color="#FFCF4B"/>
<stop offset="0.76629" stop-color="#FFF4D1"/>
<stop offset="1" stop-color="#E4B73D"/>
</linearGradient>
<linearGradient id="paint2_linear_40000019_172" x1="53.3655" y1="47.6515" x2="7.10874" y2="30.4306" gradientUnits="userSpaceOnUse">
<stop stop-color="#DBB346"/>
<stop offset="0.359079" stop-color="#FFE7A7"/>
<stop offset="0.57078" stop-color="#FFCF4B"/>
<stop offset="0.76629" stop-color="#FFF4D1"/>
<stop offset="1" stop-color="#E4B73D"/>
</linearGradient>
<linearGradient id="paint3_linear_40000019_172" x1="53.3655" y1="47.6515" x2="7.10874" y2="30.4306" gradientUnits="userSpaceOnUse">
<stop stop-color="#DBB346"/>
<stop offset="0.359079" stop-color="#FFE7A7"/>
<stop offset="0.57078" stop-color="#FFCF4B"/>
<stop offset="0.76629" stop-color="#FFF4D1"/>
<stop offset="1" stop-color="#E4B73D"/>
</linearGradient>
<linearGradient id="paint4_linear_40000019_172" x1="53.3655" y1="47.6515" x2="7.10874" y2="30.4306" gradientUnits="userSpaceOnUse">
<stop stop-color="#DBB346"/>
<stop offset="0.359079" stop-color="#FFE7A7"/>
<stop offset="0.57078" stop-color="#FFCF4B"/>
<stop offset="0.76629" stop-color="#FFF4D1"/>
<stop offset="1" stop-color="#E4B73D"/>
</linearGradient>
<linearGradient id="paint5_linear_40000019_172" x1="53.3655" y1="47.6515" x2="7.10874" y2="30.4306" gradientUnits="userSpaceOnUse">
<stop stop-color="#DBB346"/>
<stop offset="0.359079" stop-color="#FFE7A7"/>
<stop offset="0.57078" stop-color="#FFCF4B"/>
<stop offset="0.76629" stop-color="#FFF4D1"/>
<stop offset="1" stop-color="#E4B73D"/>
</linearGradient>
<linearGradient id="paint6_linear_40000019_172" x1="53.3655" y1="47.6515" x2="7.10874" y2="30.4306" gradientUnits="userSpaceOnUse">
<stop stop-color="#DBB346"/>
<stop offset="0.359079" stop-color="#FFE7A7"/>
<stop offset="0.57078" stop-color="#FFCF4B"/>
<stop offset="0.76629" stop-color="#FFF4D1"/>
<stop offset="1" stop-color="#E4B73D"/>
</linearGradient>
<linearGradient id="paint7_linear_40000019_172" x1="53.3655" y1="47.6515" x2="7.10874" y2="30.4306" gradientUnits="userSpaceOnUse">
<stop stop-color="#DBB346"/>
<stop offset="0.359079" stop-color="#FFE7A7"/>
<stop offset="0.57078" stop-color="#FFCF4B"/>
<stop offset="0.76629" stop-color="#FFF4D1"/>
<stop offset="1" stop-color="#E4B73D"/>
</linearGradient>
<linearGradient id="paint8_linear_40000019_172" x1="53.3655" y1="47.6515" x2="7.10874" y2="30.4306" gradientUnits="userSpaceOnUse">
<stop stop-color="#DBB346"/>
<stop offset="0.359079" stop-color="#FFE7A7"/>
<stop offset="0.57078" stop-color="#FFCF4B"/>
<stop offset="0.76629" stop-color="#FFF4D1"/>
<stop offset="1" stop-color="#E4B73D"/>
</linearGradient>
<linearGradient id="paint9_linear_40000019_172" x1="53.3655" y1="47.6515" x2="7.10874" y2="30.4306" gradientUnits="userSpaceOnUse">
<stop stop-color="#DBB346"/>
<stop offset="0.359079" stop-color="#FFE7A7"/>
<stop offset="0.57078" stop-color="#FFCF4B"/>
<stop offset="0.76629" stop-color="#FFF4D1"/>
<stop offset="1" stop-color="#E4B73D"/>
</linearGradient>
<linearGradient id="paint10_linear_40000019_172" x1="53.3655" y1="47.6515" x2="7.10874" y2="30.4306" gradientUnits="userSpaceOnUse">
<stop stop-color="#DBB346"/>
<stop offset="0.359079" stop-color="#FFE7A7"/>
<stop offset="0.57078" stop-color="#FFCF4B"/>
<stop offset="0.76629" stop-color="#FFF4D1"/>
<stop offset="1" stop-color="#E4B73D"/>
</linearGradient>
<linearGradient id="paint11_linear_40000019_172" x1="53.3655" y1="47.6515" x2="7.10874" y2="30.4306" gradientUnits="userSpaceOnUse">
<stop stop-color="#DBB346"/>
<stop offset="0.359079" stop-color="#FFE7A7"/>
<stop offset="0.57078" stop-color="#FFCF4B"/>
<stop offset="0.76629" stop-color="#FFF4D1"/>
<stop offset="1" stop-color="#E4B73D"/>
</linearGradient>
<linearGradient id="paint12_linear_40000019_172" x1="56.5619" y1="27.2875" x2="39.7879" y2="26.6522" gradientUnits="userSpaceOnUse">
<stop stop-color="#DBB346"/>
<stop offset="0.359079" stop-color="#FFE7A7"/>
<stop offset="0.57078" stop-color="#FFCF4B"/>
<stop offset="0.76629" stop-color="#FFF4D1"/>
<stop offset="1" stop-color="#E4B73D"/>
</linearGradient>
<linearGradient id="paint13_linear_40000019_172" x1="56.5619" y1="27.2875" x2="39.7879" y2="26.6522" gradientUnits="userSpaceOnUse">
<stop stop-color="#DBB346"/>
<stop offset="0.359079" stop-color="#FFE7A7"/>
<stop offset="0.57078" stop-color="#FFCF4B"/>
<stop offset="0.76629" stop-color="#FFF4D1"/>
<stop offset="1" stop-color="#E4B73D"/>
</linearGradient>
<linearGradient id="paint14_linear_40000019_172" x1="56.5619" y1="27.2875" x2="39.7879" y2="26.6522" gradientUnits="userSpaceOnUse">
<stop stop-color="#DBB346"/>
<stop offset="0.359079" stop-color="#FFE7A7"/>
<stop offset="0.57078" stop-color="#FFCF4B"/>
<stop offset="0.76629" stop-color="#FFF4D1"/>
<stop offset="1" stop-color="#E4B73D"/>
</linearGradient>
<linearGradient id="paint15_linear_40000019_172" x1="56.5619" y1="27.2875" x2="39.7879" y2="26.6522" gradientUnits="userSpaceOnUse">
<stop stop-color="#DBB346"/>
<stop offset="0.359079" stop-color="#FFE7A7"/>
<stop offset="0.57078" stop-color="#FFCF4B"/>
<stop offset="0.76629" stop-color="#FFF4D1"/>
<stop offset="1" stop-color="#E4B73D"/>
</linearGradient>
<linearGradient id="paint16_linear_40000019_172" x1="56.5619" y1="27.2875" x2="39.7879" y2="26.6522" gradientUnits="userSpaceOnUse">
<stop stop-color="#DBB346"/>
<stop offset="0.359079" stop-color="#FFE7A7"/>
<stop offset="0.57078" stop-color="#FFCF4B"/>
<stop offset="0.76629" stop-color="#FFF4D1"/>
<stop offset="1" stop-color="#E4B73D"/>
</linearGradient>
<linearGradient id="paint17_linear_40000019_172" x1="56.5619" y1="27.2875" x2="39.7879" y2="26.6522" gradientUnits="userSpaceOnUse">
<stop stop-color="#DBB346"/>
<stop offset="0.359079" stop-color="#FFE7A7"/>
<stop offset="0.57078" stop-color="#FFCF4B"/>
<stop offset="0.76629" stop-color="#FFF4D1"/>
<stop offset="1" stop-color="#E4B73D"/>
</linearGradient>
<linearGradient id="paint18_linear_40000019_172" x1="56.5619" y1="27.2875" x2="39.7879" y2="26.6522" gradientUnits="userSpaceOnUse">
<stop stop-color="#DBB346"/>
<stop offset="0.359079" stop-color="#FFE7A7"/>
<stop offset="0.57078" stop-color="#FFCF4B"/>
<stop offset="0.76629" stop-color="#FFF4D1"/>
<stop offset="1" stop-color="#E4B73D"/>
</linearGradient>
<linearGradient id="paint19_linear_40000019_172" x1="56.5619" y1="27.2875" x2="39.7879" y2="26.6522" gradientUnits="userSpaceOnUse">
<stop stop-color="#DBB346"/>
<stop offset="0.359079" stop-color="#FFE7A7"/>
<stop offset="0.57078" stop-color="#FFCF4B"/>
<stop offset="0.76629" stop-color="#FFF4D1"/>
<stop offset="1" stop-color="#E4B73D"/>
</linearGradient>
<linearGradient id="paint20_linear_40000019_172" x1="56.5619" y1="27.2875" x2="39.7879" y2="26.6522" gradientUnits="userSpaceOnUse">
<stop stop-color="#DBB346"/>
<stop offset="0.359079" stop-color="#FFE7A7"/>
<stop offset="0.57078" stop-color="#FFCF4B"/>
<stop offset="0.76629" stop-color="#FFF4D1"/>
<stop offset="1" stop-color="#E4B73D"/>
</linearGradient>
<linearGradient id="paint21_linear_40000019_172" x1="56.5619" y1="27.2875" x2="39.7879" y2="26.6522" gradientUnits="userSpaceOnUse">
<stop stop-color="#DBB346"/>
<stop offset="0.359079" stop-color="#FFE7A7"/>
<stop offset="0.57078" stop-color="#FFCF4B"/>
<stop offset="0.76629" stop-color="#FFF4D1"/>
<stop offset="1" stop-color="#E4B73D"/>
</linearGradient>
<linearGradient id="paint22_linear_40000019_172" x1="56.5619" y1="27.2875" x2="39.7879" y2="26.6522" gradientUnits="userSpaceOnUse">
<stop stop-color="#DBB346"/>
<stop offset="0.359079" stop-color="#FFE7A7"/>
<stop offset="0.57078" stop-color="#FFCF4B"/>
<stop offset="0.76629" stop-color="#FFF4D1"/>
<stop offset="1" stop-color="#E4B73D"/>
</linearGradient>
<linearGradient id="paint23_linear_40000019_172" x1="56.5619" y1="27.2875" x2="39.7879" y2="26.6522" gradientUnits="userSpaceOnUse">
<stop stop-color="#DBB346"/>
<stop offset="0.359079" stop-color="#FFE7A7"/>
<stop offset="0.57078" stop-color="#FFCF4B"/>
<stop offset="0.76629" stop-color="#FFF4D1"/>
<stop offset="1" stop-color="#E4B73D"/>
</linearGradient>
<clipPath id="clip0_40000019_172">
<rect width="56.2957" height="56" fill="white" transform="matrix(1 0 0 -1 0.704102 56.2676)"/>
</clipPath>
</defs>
</svg>
