<svg width="242" height="61" viewBox="0 0 242 61" fill="none" xmlns="http://www.w3.org/2000/svg">
<g filter="url(#filter0_d_40000019_570)">
<path d="M14.3876 2.82162C15.3847 1.0768 17.2402 0 19.2498 0H220.75C222.76 0 224.615 1.0768 225.612 2.82162L238.412 25.2216C239.396 26.9432 239.396 29.0568 238.412 30.7784L225.612 53.1784C224.615 54.9232 222.76 56 220.75 56H19.2498C17.2402 56 15.3847 54.9232 14.3876 53.1784L1.58764 30.7784C0.60386 29.0568 0.60386 26.9432 1.58764 25.2216L14.3876 2.82162Z" fill="url(#paint0_linear_40000019_570)"/>
<path d="M15.6032 3.51621C16.351 2.2076 17.7426 1.4 19.2498 1.4H220.75C222.257 1.4 223.649 2.2076 224.397 3.51622L237.197 25.9162C237.935 27.2074 237.935 28.7926 237.197 30.0838L224.397 52.4838C223.649 53.7924 222.257 54.6 220.75 54.6H19.2498C17.7426 54.6 16.351 53.7924 15.6032 52.4838L2.80318 30.0838C2.06535 28.7926 2.06535 27.2074 2.80318 25.9162L15.6032 3.51621Z" stroke="#FCD69B" stroke-width="2.8"/>
</g>
<path d="M53.0664 36H48.0078L42.793 25.9414H42.7051C42.7376 26.2474 42.7669 26.6152 42.793 27.0449C42.819 27.4746 42.8418 27.9141 42.8613 28.3633C42.8809 28.806 42.8906 29.2064 42.8906 29.5645V36H39.4727V21.7227H44.5117L49.707 31.6445H49.7656C49.7461 31.332 49.7266 30.9707 49.707 30.5605C49.6875 30.1439 49.668 29.724 49.6484 29.3008C49.6354 28.8776 49.6289 28.5033 49.6289 28.1777V21.7227H53.0664V36ZM64.6289 36H56.1523V21.7227H64.6289V24.8184H60.0098V27.0645H64.2871V30.1602H60.0098V32.8555H64.6289V36ZM79.9902 36H75.5273L72.7441 31.5371L69.9902 36H65.625L70.3613 28.6953L65.9082 21.7227H70.1855L72.7637 26.1367L75.2441 21.7227H79.6484L75.127 28.998L79.9902 36ZM87.9004 36H84.043V24.877H80.5566V21.7227H91.377V24.877H87.9004V36ZM111.973 28.8418C111.973 29.8314 111.865 30.7493 111.65 31.5957C111.442 32.4355 111.11 33.1777 110.654 33.8223C110.205 34.4603 109.616 34.9811 108.887 35.3848L112.373 39.3984H107.568L105.166 36.1953C105.16 36.1953 105.137 36.1953 105.098 36.1953C105.065 36.1953 105.042 36.1953 105.029 36.1953C103.831 36.1953 102.793 36.0228 101.914 35.6777C101.042 35.3262 100.322 34.8281 99.7559 34.1836C99.1895 33.5326 98.7695 32.7546 98.4961 31.8496C98.2227 30.9447 98.0859 29.9355 98.0859 28.8223C98.0859 27.3379 98.3301 26.0488 98.8184 24.9551C99.3132 23.8548 100.075 23.0052 101.104 22.4062C102.132 21.8008 103.447 21.498 105.049 21.498C106.676 21.498 107.998 21.8008 109.014 22.4062C110.036 23.0117 110.785 23.8646 111.26 24.9648C111.735 26.0651 111.973 27.3574 111.973 28.8418ZM102.148 28.8418C102.148 29.7012 102.246 30.4401 102.441 31.0586C102.637 31.6771 102.946 32.1523 103.369 32.4844C103.792 32.8164 104.346 32.9824 105.029 32.9824C105.739 32.9824 106.302 32.8164 106.719 32.4844C107.142 32.1523 107.445 31.6771 107.627 31.0586C107.816 30.4401 107.91 29.7012 107.91 28.8418C107.91 27.5527 107.695 26.5339 107.266 25.7852C106.836 25.0365 106.097 24.6621 105.049 24.6621C104.352 24.6621 103.789 24.8314 103.359 25.1699C102.936 25.5085 102.627 25.9902 102.432 26.6152C102.243 27.2402 102.148 27.9824 102.148 28.8418ZM126.689 21.7227V30.3164C126.689 31.5143 126.462 32.556 126.006 33.4414C125.55 34.3203 124.867 35.0007 123.955 35.4824C123.044 35.9577 121.901 36.1953 120.527 36.1953C118.561 36.1953 117.061 35.6908 116.025 34.6816C114.99 33.6725 114.473 32.2467 114.473 30.4043V21.7227H118.35V30.1016C118.35 31.1107 118.538 31.8431 118.916 32.2988C119.294 32.7546 119.85 32.9824 120.586 32.9824C121.113 32.9824 121.543 32.8848 121.875 32.6895C122.207 32.4876 122.448 32.1719 122.598 31.7422C122.754 31.3125 122.832 30.7591 122.832 30.082V21.7227H126.689ZM138.164 36H129.688V21.7227H138.164V24.8184H133.545V27.0645H137.822V30.1602H133.545V32.8555H138.164V36ZM150 31.6641C150 32.4388 149.805 33.1745 149.414 33.8711C149.023 34.5612 148.415 35.1211 147.588 35.5508C146.768 35.9805 145.706 36.1953 144.404 36.1953C143.753 36.1953 143.18 36.166 142.686 36.1074C142.197 36.0488 141.742 35.9544 141.318 35.8242C140.895 35.6875 140.456 35.5117 140 35.2969V31.8594C140.775 32.25 141.556 32.5495 142.344 32.7578C143.132 32.9596 143.844 33.0605 144.482 33.0605C144.867 33.0605 145.179 33.015 145.42 32.9238C145.667 32.8327 145.85 32.709 145.967 32.5527C146.084 32.39 146.143 32.2044 146.143 31.9961C146.143 31.7487 146.055 31.5404 145.879 31.3711C145.71 31.1953 145.436 31.013 145.059 30.8242C144.681 30.6354 144.183 30.401 143.564 30.1211C143.037 29.8737 142.559 29.6198 142.129 29.3594C141.706 29.099 141.341 28.8027 141.035 28.4707C140.736 28.1322 140.505 27.7383 140.342 27.2891C140.179 26.8398 140.098 26.3092 140.098 25.6973C140.098 24.7793 140.322 24.0111 140.771 23.3926C141.227 22.7676 141.859 22.2988 142.666 21.9863C143.48 21.6738 144.417 21.5176 145.479 21.5176C146.41 21.5176 147.246 21.6217 147.988 21.8301C148.737 22.0384 149.408 22.276 150 22.543L148.818 25.5215C148.206 25.2415 147.604 25.0202 147.012 24.8574C146.419 24.6882 145.869 24.6035 145.361 24.6035C145.029 24.6035 144.756 24.6458 144.541 24.7305C144.333 24.8086 144.176 24.916 144.072 25.0527C143.975 25.1895 143.926 25.3457 143.926 25.5215C143.926 25.7428 144.01 25.9414 144.18 26.1172C144.355 26.293 144.645 26.485 145.049 26.6934C145.459 26.8952 146.016 27.1589 146.719 27.4844C147.415 27.7969 148.008 28.1354 148.496 28.5C148.984 28.8581 149.355 29.291 149.609 29.7988C149.87 30.3001 150 30.9219 150 31.6641ZM158.506 36H154.648V24.877H151.162V21.7227H161.982V24.877H158.506V36ZM164.023 36V21.7227H167.9V36H164.023ZM184.355 28.8418C184.355 29.9421 184.222 30.9447 183.955 31.8496C183.695 32.748 183.285 33.5228 182.725 34.1738C182.165 34.8249 181.445 35.3262 180.566 35.6777C179.688 36.0228 178.636 36.1953 177.412 36.1953C176.214 36.1953 175.176 36.0228 174.297 35.6777C173.424 35.3262 172.705 34.8281 172.139 34.1836C171.572 33.5326 171.152 32.7546 170.879 31.8496C170.605 30.9447 170.469 29.9355 170.469 28.8223C170.469 27.3379 170.713 26.0488 171.201 24.9551C171.696 23.8548 172.458 23.0052 173.486 22.4062C174.515 21.8008 175.83 21.498 177.432 21.498C179.059 21.498 180.381 21.8008 181.396 22.4062C182.419 23.0117 183.167 23.8646 183.643 24.9648C184.118 26.0651 184.355 27.3574 184.355 28.8418ZM174.531 28.8418C174.531 29.7012 174.629 30.4401 174.824 31.0586C175.02 31.6771 175.329 32.1523 175.752 32.4844C176.175 32.8164 176.729 32.9824 177.412 32.9824C178.122 32.9824 178.685 32.8164 179.102 32.4844C179.525 32.1523 179.827 31.6771 180.01 31.0586C180.199 30.4401 180.293 29.7012 180.293 28.8418C180.293 27.5527 180.078 26.5339 179.648 25.7852C179.219 25.0365 178.48 24.6621 177.432 24.6621C176.735 24.6621 176.172 24.8314 175.742 25.1699C175.319 25.5085 175.01 25.9902 174.814 26.6152C174.626 27.2402 174.531 27.9824 174.531 28.8418ZM200.527 36H195.469L190.254 25.9414H190.166C190.199 26.2474 190.228 26.6152 190.254 27.0449C190.28 27.4746 190.303 27.9141 190.322 28.3633C190.342 28.806 190.352 29.2064 190.352 29.5645V36H186.934V21.7227H191.973L197.168 31.6445H197.227C197.207 31.332 197.188 30.9707 197.168 30.5605C197.148 30.1439 197.129 29.724 197.109 29.3008C197.096 28.8776 197.09 28.5033 197.09 28.1777V21.7227H200.527V36Z" fill="#A37C3C"/>
<defs>
<filter id="filter0_d_40000019_570" x="0.849792" y="0" width="241.1" height="60.2" filterUnits="userSpaceOnUse" color-interpolation-filters="sRGB">
<feFlood flood-opacity="0" result="BackgroundImageFix"/>
<feColorMatrix in="SourceAlpha" type="matrix" values="0 0 0 0 0 0 0 0 0 0 0 0 0 0 0 0 0 0 127 0" result="hardAlpha"/>
<feOffset dx="2.8" dy="4.2"/>
<feComposite in2="hardAlpha" operator="out"/>
<feColorMatrix type="matrix" values="0 0 0 0 0.788348 0 0 0 0 0.491558 0 0 0 0 0 0 0 0 1 0"/>
<feBlend mode="normal" in2="BackgroundImageFix" result="effect1_dropShadow_40000019_570"/>
<feBlend mode="normal" in="SourceGraphic" in2="effect1_dropShadow_40000019_570" result="shape"/>
</filter>
<linearGradient id="paint0_linear_40000019_570" x1="6.15384" y1="28" x2="191.9" y2="122.522" gradientUnits="userSpaceOnUse">
<stop stop-color="#DBB346"/>
<stop offset="0.359079" stop-color="#FFE7A7"/>
<stop offset="0.57078" stop-color="#FFCF4B"/>
<stop offset="0.76629" stop-color="#FFF4D1"/>
<stop offset="1" stop-color="#E4B73D"/>
</linearGradient>
</defs>
</svg>
