<svg width="295" height="75" viewBox="0 0 295 75" fill="none" xmlns="http://www.w3.org/2000/svg">
<g filter="url(#filter0_d_22414_10613)">
<path d="M17.7568 4.35008C18.9675 2.23137 21.2207 0.923828 23.6609 0.923828H268.34C270.78 0.923828 273.033 2.23137 274.244 4.35008L289.787 31.5501C290.981 33.6406 290.981 36.207 289.787 38.2976L274.244 65.4976C273.033 67.6163 270.78 68.9238 268.34 68.9238H23.6609C21.2207 68.9238 18.9675 67.6163 17.7568 65.4976L2.21399 38.2976C1.01939 36.207 1.01939 33.6406 2.21399 31.5501L17.7568 4.35008Z" fill="url(#paint0_linear_22414_10613)"/>
<path d="M19.2329 5.19352C20.1409 3.60449 21.8307 2.62383 23.6609 2.62383H268.34C270.17 2.62383 271.86 3.60449 272.768 5.19352L288.311 32.3935C289.207 33.9614 289.207 35.8862 288.311 37.4541L272.768 64.6541C271.86 66.2432 270.17 67.2238 268.34 67.2238H23.6609C21.8307 67.2238 20.1409 66.2432 19.2329 64.6541L3.69 37.4541C2.79405 35.8862 2.79405 33.9614 3.69 32.3935L19.2329 5.19352Z" stroke="#FCD69B" stroke-width="3.4"/>
</g>
<path d="M46.8772 39.3737C46.8772 40.3145 46.6401 41.2078 46.1657 42.0537C45.6914 42.8917 44.9522 43.5716 43.9482 44.0933C42.9521 44.6151 41.6636 44.876 40.0824 44.876C39.2919 44.876 38.5962 44.8404 37.9954 44.7693C37.4025 44.6981 36.8491 44.5835 36.3352 44.4254C35.8214 44.2593 35.2878 44.0459 34.7344 43.785V39.6109C35.6751 40.0852 36.6238 40.4489 37.5804 40.7019C38.5369 40.9469 39.4026 41.0695 40.1773 41.0695C40.6437 41.0695 41.0232 41.0141 41.3157 40.9035C41.6161 40.7928 41.8375 40.6426 41.9798 40.4528C42.1221 40.2552 42.1932 40.0299 42.1932 39.7769C42.1932 39.4765 42.0865 39.2235 41.873 39.018C41.6675 38.8045 41.3355 38.5832 40.877 38.3539C40.4184 38.1247 39.8137 37.8401 39.0626 37.5001C38.4223 37.1997 37.8412 36.8914 37.3195 36.5752C36.8056 36.259 36.3629 35.8993 35.9914 35.4961C35.6277 35.085 35.3471 34.6067 35.1494 34.0612C34.9518 33.5158 34.853 32.8715 34.853 32.1283C34.853 31.0137 35.1257 30.0808 35.6712 29.3298C36.2246 28.5709 36.9914 28.0017 37.9717 27.6222C38.9599 27.2427 40.0983 27.053 41.3869 27.053C42.5173 27.053 43.5332 27.1795 44.4344 27.4325C45.3436 27.6855 46.1578 27.974 46.8772 28.2981L45.4424 31.9149C44.6993 31.575 43.968 31.3062 43.2486 31.1085C42.5292 30.903 41.8612 30.8002 41.2446 30.8002C40.8414 30.8002 40.5093 30.8516 40.2485 30.9544C39.9955 31.0492 39.8058 31.1797 39.6793 31.3457C39.5607 31.5117 39.5014 31.7015 39.5014 31.9149C39.5014 32.1837 39.6042 32.4248 39.8097 32.6383C40.0232 32.8517 40.375 33.0849 40.8651 33.3379C41.3631 33.583 42.0391 33.9031 42.8929 34.2984C43.7387 34.6779 44.4581 35.089 45.0511 35.5317C45.644 35.9665 46.0946 36.4922 46.4029 37.1088C46.7191 37.7175 46.8772 38.4725 46.8772 39.3737Z" fill="#A37932"/>
<path d="M57.2058 44.6388H52.5218V31.1323H48.2884V27.302H61.4273V31.1323H57.2058V44.6388Z" fill="#A37932"/>
<path d="M74.5425 44.6388L73.6888 41.3896H68.0561L67.1786 44.6388H62.0321L67.6885 27.2309H73.9378L79.6653 44.6388H74.5425ZM72.7164 37.5476L71.9693 34.7016C71.8903 34.3933 71.7756 33.9545 71.6254 33.3853C71.4752 32.8082 71.325 32.2153 71.1748 31.6066C71.0325 30.99 70.9218 30.484 70.8428 30.0887C70.7716 30.484 70.6689 30.9741 70.5345 31.5592C70.408 32.1363 70.2736 32.7094 70.1313 33.2786C69.9969 33.8478 69.8783 34.3221 69.7755 34.7016L69.0285 37.5476H72.7164Z" fill="#A37932"/>
<path d="M87.2309 27.302C88.8041 27.302 90.1124 27.4957 91.156 27.8831C92.1995 28.2626 92.9821 28.8318 93.5039 29.5907C94.0336 30.3496 94.2984 31.2943 94.2984 32.4248C94.2984 33.1284 94.1798 33.7687 93.9427 34.3458C93.7055 34.9229 93.3656 35.4408 92.9229 35.8993C92.488 36.3499 91.9663 36.7452 91.3576 37.0851L96.4092 44.6388H91.0967L87.4206 38.3302H86.2348V44.6388H81.5508V27.302H87.2309ZM87.1597 30.8477H86.2348V34.8083H87.1123C87.8317 34.8083 88.4207 34.6502 88.8792 34.334C89.3377 34.0178 89.567 33.4525 89.567 32.6383C89.567 32.077 89.3772 31.6382 88.9978 31.322C88.6183 31.0058 88.0056 30.8477 87.1597 30.8477Z" fill="#A37932"/>
<path d="M105.635 44.6388H100.951V31.1323H96.7175V27.302H109.856V31.1323H105.635V44.6388Z" fill="#A37932"/>
<path d="M133.36 35.6028C133.36 37.6187 132.984 39.2947 132.233 40.6307C131.482 41.9668 130.423 42.9707 129.055 43.6427C127.695 44.3068 126.094 44.6388 124.252 44.6388H118.643V27.302H124.644C126.509 27.302 128.09 27.6222 129.387 28.2626C130.684 28.9029 131.668 29.8397 132.34 31.073C133.02 32.3062 133.36 33.8162 133.36 35.6028ZM128.498 35.7688C128.498 34.7174 128.355 33.8478 128.071 33.16C127.794 32.4643 127.375 31.9465 126.814 31.6066C126.252 31.2587 125.545 31.0848 124.691 31.0848H123.327V40.7967H124.371C125.794 40.7967 126.837 40.3856 127.502 39.5635C128.166 38.7334 128.498 37.4685 128.498 35.7688Z" fill="#A37932"/>
<path d="M147.115 44.6388L146.261 41.3896H140.629L139.751 44.6388H134.605L140.261 27.2309H146.51L152.238 44.6388H147.115ZM145.289 37.5476L144.542 34.7016C144.463 34.3933 144.348 33.9545 144.198 33.3853C144.048 32.8082 143.898 32.2153 143.747 31.6066C143.605 30.99 143.494 30.484 143.415 30.0887C143.344 30.484 143.241 30.9741 143.107 31.5592C142.981 32.1363 142.846 32.7094 142.704 33.2786C142.569 33.8478 142.451 34.3221 142.348 34.7016L141.601 37.5476H145.289Z" fill="#A37932"/>
<path d="M154.123 44.6388V27.302H158.831V44.6388H154.123Z" fill="#A37932"/>
<path d="M162.59 44.6388V27.302H167.274V40.856H173.95V44.6388H162.59Z" fill="#A37932"/>
<path d="M182.915 33.7292L185.903 27.302H190.979L185.275 37.8677V44.6388H180.555V38.01L174.852 27.302H179.951L182.915 33.7292Z" fill="#A37932"/>
<path d="M215.383 35.9467C215.383 37.1483 215.253 38.263 214.992 39.2907C214.739 40.3105 214.336 41.2118 213.782 41.9944C213.237 42.7692 212.521 43.4016 211.636 43.8917L215.869 48.7655H210.035L207.118 44.876C207.11 44.876 207.082 44.876 207.035 44.876C206.995 44.876 206.968 44.876 206.952 44.876C205.497 44.876 204.236 44.6665 203.169 44.2475C202.11 43.8206 201.236 43.2158 200.548 42.4332C199.861 41.6426 199.351 40.6979 199.019 39.5991C198.687 38.5002 198.521 37.2748 198.521 35.923C198.521 34.1205 198.817 32.5552 199.41 31.2271C200.011 29.8911 200.936 28.8594 202.185 28.1321C203.434 27.3969 205.031 27.0293 206.976 27.0293C208.952 27.0293 210.557 27.3969 211.79 28.1321C213.031 28.8673 213.94 29.9029 214.517 31.239C215.095 32.575 215.383 34.1443 215.383 35.9467ZM203.454 35.9467C203.454 36.9902 203.572 37.8875 203.809 38.6385C204.047 39.3896 204.422 39.9667 204.936 40.3698C205.45 40.773 206.122 40.9746 206.952 40.9746C207.814 40.9746 208.497 40.773 209.003 40.3698C209.517 39.9667 209.885 39.3896 210.106 38.6385C210.335 37.8875 210.45 36.9902 210.45 35.9467C210.45 34.3814 210.189 33.1442 209.667 32.2351C209.146 31.3259 208.248 30.8714 206.976 30.8714C206.13 30.8714 205.446 31.0769 204.924 31.488C204.41 31.8991 204.035 32.4841 203.798 33.243C203.568 34.002 203.454 34.9032 203.454 35.9467Z" fill="#A37932"/>
<path d="M233.253 27.302V37.7373C233.253 39.1919 232.977 40.4568 232.423 41.5319C231.87 42.5992 231.04 43.4253 229.933 44.0103C228.826 44.5874 227.439 44.876 225.771 44.876C223.383 44.876 221.561 44.2633 220.304 43.0379C219.047 41.8126 218.419 40.0813 218.419 37.844V27.302H223.127V37.4764C223.127 38.7018 223.356 39.5911 223.814 40.1445C224.273 40.6979 224.949 40.9746 225.842 40.9746C226.482 40.9746 227.004 40.856 227.407 40.6189C227.811 40.3738 228.103 39.9904 228.285 39.4686C228.475 38.9468 228.569 38.2749 228.569 37.4527V27.302H233.253Z" fill="#A37932"/>
<path d="M236.894 44.6388V27.302H241.602V44.6388H236.894Z" fill="#A37932"/>
<path d="M257.717 44.6388H244.211V41.7454L251.717 31.0848H244.388V27.302H257.527V30.1836L250.021 40.856H257.717V44.6388Z" fill="#A37932"/>
<defs>
<filter id="filter0_d_22414_10613" x="1.31836" y="0.923828" width="292.764" height="73.1" filterUnits="userSpaceOnUse" color-interpolation-filters="sRGB">
<feFlood flood-opacity="0" result="BackgroundImageFix"/>
<feColorMatrix in="SourceAlpha" type="matrix" values="0 0 0 0 0 0 0 0 0 0 0 0 0 0 0 0 0 0 127 0" result="hardAlpha"/>
<feOffset dx="3.4" dy="5.1"/>
<feComposite in2="hardAlpha" operator="out"/>
<feColorMatrix type="matrix" values="0 0 0 0 0.788348 0 0 0 0 0.491558 0 0 0 0 0 0 0 0 1 0"/>
<feBlend mode="normal" in2="BackgroundImageFix" result="effect1_dropShadow_22414_10613"/>
<feBlend mode="normal" in="SourceGraphic" in2="effect1_dropShadow_22414_10613" result="shape"/>
</filter>
<linearGradient id="paint0_linear_22414_10613" x1="7.75866" y1="34.9238" x2="233.307" y2="149.701" gradientUnits="userSpaceOnUse">
<stop stop-color="#DBB346"/>
<stop offset="0.359079" stop-color="#FFE7A7"/>
<stop offset="0.57078" stop-color="#FFCF4B"/>
<stop offset="0.76629" stop-color="#FFF4D1"/>
<stop offset="1" stop-color="#E4B73D"/>
</linearGradient>
</defs>
</svg>
