<svg width="141" height="24" viewBox="0 0 141 24" fill="none" xmlns="http://www.w3.org/2000/svg">
<g clip-path="url(#clip0_40000081_564)">
<path d="M23.6 12.0004C23.6 18.6532 18.004 23.9952 11.2608 23.5776C5.48317 23.2196 0.780775 18.5172 0.423175 12.7396C0.0051752 5.99639 5.34718 0.400391 12 0.400391C13.8272 0.400391 15.5572 0.821991 17.096 1.57679C17.5084 1.77919 17.6596 2.29279 17.432 2.69199L17.4304 2.69479C17.22 3.06359 16.7608 3.20079 16.38 3.01319C14.8528 2.26119 13.1068 1.89519 11.264 2.02679C6.42397 2.37199 2.47118 6.25399 2.04038 11.0872C1.50438 17.1028 6.32517 22.152 12.2656 21.9968C17.3528 21.864 21.5992 17.8296 21.9716 12.7544C22.0684 11.436 21.9096 10.1596 21.532 8.98279C21.4124 8.60959 21.5864 8.20679 21.9368 8.03159C22.3744 7.81279 22.9108 8.03159 23.0592 8.49759C23.4104 9.60199 23.6 10.7788 23.6 12.0004Z" fill="#C6F7E0"/>
<path d="M6.16401 8.98918L12.4896 17.548C12.9672 18.1944 13.9392 18.1384 14.342 17.4416L23.4828 1.61838C23.9588 0.794384 22.8728 -0.0340159 22.2252 0.659584L12.702 10.8604L7.17641 7.80198C6.42961 7.38878 5.65361 8.29838 6.16401 8.98918Z" fill="#1FDC84"/>
</g>
<path d="M37.5852 19V14.374L32.9052 5.68H35.5692L38.7912 11.89L42.0132 5.68H44.6952L40.0152 14.374V19H37.5852ZM49.117 19.18C48.073 19.18 47.185 18.946 46.453 18.478C45.721 18.01 45.163 17.404 44.779 16.66C44.407 15.904 44.221 15.094 44.221 14.23C44.221 13.366 44.407 12.562 44.779 11.818C45.163 11.062 45.721 10.45 46.453 9.982C47.185 9.514 48.073 9.28 49.117 9.28C50.173 9.28 51.061 9.514 51.781 9.982C52.513 10.45 53.065 11.062 53.437 11.818C53.821 12.562 54.013 13.366 54.013 14.23C54.013 15.094 53.821 15.904 53.437 16.66C53.065 17.404 52.513 18.01 51.781 18.478C51.061 18.946 50.173 19.18 49.117 19.18ZM49.117 17.182C49.657 17.182 50.107 17.044 50.467 16.768C50.839 16.492 51.121 16.132 51.313 15.688C51.505 15.232 51.601 14.746 51.601 14.23C51.601 13.702 51.505 13.216 51.313 12.772C51.121 12.328 50.839 11.968 50.467 11.692C50.107 11.416 49.657 11.278 49.117 11.278C48.589 11.278 48.139 11.416 47.767 11.692C47.395 11.968 47.113 12.328 46.921 12.772C46.729 13.216 46.633 13.702 46.633 14.23C46.633 14.746 46.729 15.232 46.921 15.688C47.113 16.132 47.395 16.492 47.767 16.768C48.139 17.044 48.589 17.182 49.117 17.182ZM59.1312 19.18C58.1352 19.18 57.3792 18.874 56.8632 18.262C56.3592 17.65 56.1072 16.864 56.1072 15.904V9.46H58.4832V15.508C58.4832 16.024 58.6212 16.438 58.8972 16.75C59.1732 17.05 59.5632 17.2 60.0672 17.2C60.5112 17.2 60.8712 17.086 61.1472 16.858C61.4232 16.63 61.6212 16.336 61.7412 15.976C61.8732 15.616 61.9392 15.244 61.9392 14.86V9.46H64.3332V19H61.9392V17.632H61.8312C61.7112 17.848 61.5372 18.076 61.3092 18.316C61.0932 18.556 60.8052 18.76 60.4452 18.928C60.0972 19.096 59.6592 19.18 59.1312 19.18ZM66.1702 10.63L67.5922 8.29C67.2202 8.266 66.9082 8.122 66.6562 7.858C66.4162 7.594 66.2962 7.27 66.2962 6.886C66.2962 6.478 66.4342 6.148 66.7102 5.896C66.9862 5.632 67.3222 5.5 67.7182 5.5C68.1382 5.5 68.4862 5.632 68.7622 5.896C69.0502 6.148 69.1942 6.502 69.1942 6.958C69.1942 7.342 69.0502 7.786 68.7622 8.29C68.4742 8.794 68.0002 9.508 67.3402 10.432L67.2142 10.63H66.1702ZM70.6619 19V9.46H73.0379V10.774H73.1279C73.2959 10.402 73.5719 10.06 73.9559 9.748C74.3399 9.436 74.9159 9.28 75.6839 9.28C75.9239 9.28 76.1219 9.298 76.2779 9.334C76.4339 9.358 76.5119 9.37 76.5119 9.37V11.692C76.5119 11.692 76.4219 11.68 76.2419 11.656C76.0739 11.632 75.8639 11.62 75.6119 11.62C74.7719 11.62 74.1359 11.854 73.7039 12.322C73.2719 12.79 73.0559 13.546 73.0559 14.59V19H70.6619ZM82.2484 19.18C81.4324 19.18 80.7244 19.042 80.1244 18.766C79.5364 18.478 79.0444 18.1 78.6484 17.632C78.2644 17.152 77.9764 16.618 77.7844 16.03C77.5924 15.442 77.4964 14.842 77.4964 14.23C77.4964 13.618 77.5864 13.024 77.7664 12.448C77.9584 11.86 78.2404 11.326 78.6124 10.846C78.9964 10.366 79.4824 9.988 80.0704 9.712C80.6584 9.424 81.3544 9.28 82.1584 9.28C83.0224 9.28 83.7844 9.472 84.4444 9.856C85.1044 10.24 85.6204 10.804 85.9924 11.548C86.3644 12.28 86.5504 13.192 86.5504 14.284V14.896H79.9084C79.9444 15.544 80.1664 16.108 80.5744 16.588C80.9824 17.056 81.5404 17.29 82.2484 17.29C82.6564 17.29 82.9924 17.224 83.2564 17.092C83.5204 16.96 83.7244 16.81 83.8684 16.642C84.0124 16.462 84.1144 16.312 84.1744 16.192C84.2344 16.06 84.2644 15.994 84.2644 15.994H86.4784C86.4784 15.994 86.4484 16.102 86.3884 16.318C86.3284 16.522 86.2144 16.786 86.0464 17.11C85.8904 17.422 85.6564 17.74 85.3444 18.064C85.0324 18.376 84.6244 18.64 84.1204 18.856C83.6164 19.072 82.9924 19.18 82.2484 19.18ZM79.9084 13.33H84.2464C84.2104 12.586 83.9884 12.034 83.5804 11.674C83.1724 11.314 82.6924 11.134 82.1404 11.134C81.5284 11.134 81.0184 11.332 80.6104 11.728C80.2024 12.112 79.9684 12.646 79.9084 13.33ZM92.7928 19V9.46H95.1688V10.774H95.2588C95.4268 10.402 95.7028 10.06 96.0868 9.748C96.4708 9.436 97.0468 9.28 97.8148 9.28C98.0548 9.28 98.2528 9.298 98.4088 9.334C98.5648 9.358 98.6428 9.37 98.6428 9.37V11.692C98.6428 11.692 98.5528 11.68 98.3728 11.656C98.2048 11.632 97.9948 11.62 97.7428 11.62C96.9028 11.62 96.2668 11.854 95.8348 12.322C95.4028 12.79 95.1868 13.546 95.1868 14.59V19H92.7928ZM102.002 7.984C101.582 7.984 101.234 7.846 100.958 7.57C100.694 7.294 100.562 6.964 100.562 6.58C100.562 6.196 100.694 5.866 100.958 5.59C101.234 5.314 101.582 5.176 102.002 5.176C102.422 5.176 102.77 5.314 103.046 5.59C103.322 5.866 103.46 6.196 103.46 6.58C103.46 6.964 103.322 7.294 103.046 7.57C102.77 7.846 102.422 7.984 102.002 7.984ZM100.814 19V9.46H103.208V19H100.814ZM110.483 22.816C109.631 22.816 108.923 22.702 108.359 22.474C107.807 22.258 107.369 21.988 107.045 21.664C106.721 21.352 106.481 21.034 106.325 20.71C106.169 20.386 106.067 20.116 106.019 19.9C105.971 19.684 105.947 19.576 105.947 19.576H108.287C108.287 19.576 108.311 19.642 108.359 19.774C108.407 19.906 108.503 20.056 108.647 20.224C108.803 20.404 109.025 20.56 109.313 20.692C109.601 20.824 109.985 20.89 110.465 20.89C111.305 20.89 111.911 20.65 112.283 20.17C112.655 19.69 112.841 19.108 112.841 18.424V17.362H112.733C112.601 17.566 112.409 17.788 112.157 18.028C111.917 18.268 111.599 18.472 111.203 18.64C110.819 18.808 110.351 18.892 109.799 18.892C109.091 18.892 108.473 18.754 107.945 18.478C107.417 18.202 106.973 17.836 106.613 17.38C106.253 16.924 105.983 16.414 105.803 15.85C105.635 15.274 105.551 14.686 105.551 14.086C105.551 13.486 105.635 12.904 105.803 12.34C105.983 11.764 106.253 11.248 106.613 10.792C106.973 10.324 107.417 9.958 107.945 9.694C108.473 9.418 109.091 9.28 109.799 9.28C110.351 9.28 110.819 9.364 111.203 9.532C111.599 9.7 111.917 9.904 112.157 10.144C112.409 10.372 112.601 10.588 112.733 10.792H112.841V9.46H115.235V18.406C115.235 19.234 115.061 19.978 114.713 20.638C114.365 21.31 113.837 21.838 113.129 22.222C112.433 22.618 111.551 22.816 110.483 22.816ZM110.429 16.966C110.969 16.966 111.419 16.828 111.779 16.552C112.139 16.264 112.409 15.904 112.589 15.472C112.769 15.028 112.859 14.566 112.859 14.086C112.859 13.594 112.769 13.132 112.589 12.7C112.409 12.256 112.139 11.896 111.779 11.62C111.419 11.344 110.969 11.206 110.429 11.206C109.877 11.206 109.415 11.344 109.043 11.62C108.683 11.896 108.413 12.256 108.233 12.7C108.053 13.132 107.963 13.594 107.963 14.086C107.963 14.566 108.053 15.028 108.233 15.472C108.413 15.904 108.683 16.264 109.043 16.552C109.415 16.828 109.877 16.966 110.429 16.966ZM117.652 19V5.32H120.046V10.828H120.154C120.25 10.66 120.4 10.456 120.604 10.216C120.808 9.964 121.09 9.748 121.45 9.568C121.81 9.376 122.266 9.28 122.818 9.28C123.55 9.28 124.15 9.448 124.618 9.784C125.098 10.108 125.452 10.54 125.68 11.08C125.92 11.62 126.04 12.202 126.04 12.826V19H123.646V13.15C123.646 12.634 123.502 12.19 123.214 11.818C122.926 11.446 122.494 11.26 121.918 11.26C121.474 11.26 121.114 11.374 120.838 11.602C120.562 11.818 120.358 12.1 120.226 12.448C120.106 12.796 120.046 13.162 120.046 13.546V19H117.652ZM132.356 19.18C131.708 19.18 131.174 19.084 130.754 18.892C130.334 18.7 130.004 18.448 129.764 18.136C129.536 17.824 129.374 17.482 129.278 17.11C129.182 16.738 129.134 16.372 129.134 16.012V11.386H127.496V9.46H129.134V7.084H131.528V9.46H133.67V11.386H131.528V15.958C131.528 16.81 132.008 17.236 132.968 17.236C133.196 17.236 133.406 17.224 133.598 17.2C133.802 17.164 133.904 17.146 133.904 17.146V19.018C133.904 19.018 133.748 19.042 133.436 19.09C133.136 19.15 132.776 19.18 132.356 19.18ZM136.579 15.22L136.345 5.68H138.901L138.613 15.22H136.579ZM137.623 19.162C137.227 19.162 136.903 19.03 136.651 18.766C136.399 18.502 136.273 18.19 136.273 17.83C136.273 17.458 136.399 17.14 136.651 16.876C136.903 16.612 137.227 16.48 137.623 16.48C138.007 16.48 138.325 16.612 138.577 16.876C138.841 17.14 138.973 17.458 138.973 17.83C138.973 18.202 138.841 18.52 138.577 18.784C138.325 19.036 138.007 19.162 137.623 19.162Z" fill="#1FDC84"/>
<defs>
<clipPath id="clip0_40000081_564">
<rect width="24" height="24" fill="white"/>
</clipPath>
</defs>
</svg>
