<svg width="107" height="18" viewBox="0 0 107 18" fill="none" xmlns="http://www.w3.org/2000/svg">
<path d="M5.58521 14V9.374L0.905211 0.68H3.56921L6.79121 6.89L10.0132 0.68H12.6952L8.01521 9.374V14H5.58521ZM17.117 14.18C16.073 14.18 15.185 13.946 14.453 13.478C13.721 13.01 13.163 12.404 12.779 11.66C12.407 10.904 12.221 10.094 12.221 9.23C12.221 8.366 12.407 7.562 12.779 6.818C13.163 6.062 13.721 5.45 14.453 4.982C15.185 4.514 16.073 4.28 17.117 4.28C18.173 4.28 19.061 4.514 19.781 4.982C20.513 5.45 21.065 6.062 21.437 6.818C21.821 7.562 22.013 8.366 22.013 9.23C22.013 10.094 21.821 10.904 21.437 11.66C21.065 12.404 20.513 13.01 19.781 13.478C19.061 13.946 18.173 14.18 17.117 14.18ZM17.117 12.182C17.657 12.182 18.107 12.044 18.467 11.768C18.839 11.492 19.121 11.132 19.313 10.688C19.505 10.232 19.601 9.746 19.601 9.23C19.601 8.702 19.505 8.216 19.313 7.772C19.121 7.328 18.839 6.968 18.467 6.692C18.107 6.416 17.657 6.278 17.117 6.278C16.589 6.278 16.139 6.416 15.767 6.692C15.395 6.968 15.113 7.328 14.921 7.772C14.729 8.216 14.633 8.702 14.633 9.23C14.633 9.746 14.729 10.232 14.921 10.688C15.113 11.132 15.395 11.492 15.767 11.768C16.139 12.044 16.589 12.182 17.117 12.182ZM27.1312 14.18C26.1352 14.18 25.3792 13.874 24.8632 13.262C24.3592 12.65 24.1072 11.864 24.1072 10.904V4.46H26.4832V10.508C26.4832 11.024 26.6212 11.438 26.8972 11.75C27.1732 12.05 27.5632 12.2 28.0672 12.2C28.5112 12.2 28.8712 12.086 29.1472 11.858C29.4232 11.63 29.6212 11.336 29.7412 10.976C29.8732 10.616 29.9392 10.244 29.9392 9.86V4.46H32.3332V14H29.9392V12.632H29.8312C29.7112 12.848 29.5372 13.076 29.3092 13.316C29.0932 13.556 28.8052 13.76 28.4452 13.928C28.0972 14.096 27.6592 14.18 27.1312 14.18ZM34.1702 5.63L35.5922 3.29C35.2202 3.266 34.9082 3.122 34.6562 2.858C34.4162 2.594 34.2962 2.27 34.2962 1.886C34.2962 1.478 34.4342 1.148 34.7102 0.895999C34.9862 0.631999 35.3222 0.499999 35.7182 0.499999C36.1382 0.499999 36.4862 0.631999 36.7622 0.895999C37.0502 1.148 37.1942 1.502 37.1942 1.958C37.1942 2.342 37.0502 2.786 36.7622 3.29C36.4742 3.794 36.0002 4.508 35.3402 5.432L35.2142 5.63H34.1702ZM38.6619 14V4.46H41.0379V5.774H41.1279C41.2959 5.402 41.5719 5.06 41.9559 4.748C42.3399 4.436 42.9159 4.28 43.6839 4.28C43.9239 4.28 44.1219 4.298 44.2779 4.334C44.4339 4.358 44.5119 4.37 44.5119 4.37V6.692C44.5119 6.692 44.4219 6.68 44.2419 6.656C44.0739 6.632 43.8639 6.62 43.6119 6.62C42.7719 6.62 42.1359 6.854 41.7039 7.322C41.2719 7.79 41.0559 8.546 41.0559 9.59V14H38.6619ZM50.2484 14.18C49.4324 14.18 48.7244 14.042 48.1244 13.766C47.5364 13.478 47.0444 13.1 46.6484 12.632C46.2644 12.152 45.9764 11.618 45.7844 11.03C45.5924 10.442 45.4964 9.842 45.4964 9.23C45.4964 8.618 45.5864 8.024 45.7664 7.448C45.9584 6.86 46.2404 6.326 46.6124 5.846C46.9964 5.366 47.4824 4.988 48.0704 4.712C48.6584 4.424 49.3544 4.28 50.1584 4.28C51.0224 4.28 51.7844 4.472 52.4444 4.856C53.1044 5.24 53.6204 5.804 53.9924 6.548C54.3644 7.28 54.5504 8.192 54.5504 9.284V9.896H47.9084C47.9444 10.544 48.1664 11.108 48.5744 11.588C48.9824 12.056 49.5404 12.29 50.2484 12.29C50.6564 12.29 50.9924 12.224 51.2564 12.092C51.5204 11.96 51.7244 11.81 51.8684 11.642C52.0124 11.462 52.1144 11.312 52.1744 11.192C52.2344 11.06 52.2644 10.994 52.2644 10.994H54.4784C54.4784 10.994 54.4484 11.102 54.3884 11.318C54.3284 11.522 54.2144 11.786 54.0464 12.11C53.8904 12.422 53.6564 12.74 53.3444 13.064C53.0324 13.376 52.6244 13.64 52.1204 13.856C51.6164 14.072 50.9924 14.18 50.2484 14.18ZM47.9084 8.33H52.2464C52.2104 7.586 51.9884 7.034 51.5804 6.674C51.1724 6.314 50.6924 6.134 50.1404 6.134C49.5284 6.134 49.0184 6.332 48.6104 6.728C48.2024 7.112 47.9684 7.646 47.9084 8.33ZM60.7928 14V4.46H63.1688V5.774H63.2588C63.4268 5.402 63.7028 5.06 64.0868 4.748C64.4708 4.436 65.0468 4.28 65.8148 4.28C66.0548 4.28 66.2528 4.298 66.4088 4.334C66.5648 4.358 66.6428 4.37 66.6428 4.37V6.692C66.6428 6.692 66.5528 6.68 66.3728 6.656C66.2048 6.632 65.9948 6.62 65.7428 6.62C64.9028 6.62 64.2668 6.854 63.8348 7.322C63.4028 7.79 63.1868 8.546 63.1868 9.59V14H60.7928ZM70.0023 2.984C69.5823 2.984 69.2343 2.846 68.9583 2.57C68.6943 2.294 68.5623 1.964 68.5623 1.58C68.5623 1.196 68.6943 0.865999 68.9583 0.589999C69.2343 0.314 69.5823 0.176 70.0023 0.176C70.4223 0.176 70.7703 0.314 71.0463 0.589999C71.3223 0.865999 71.4603 1.196 71.4603 1.58C71.4603 1.964 71.3223 2.294 71.0463 2.57C70.7703 2.846 70.4223 2.984 70.0023 2.984ZM68.8143 14V4.46H71.2083V14H68.8143ZM78.4831 17.816C77.6311 17.816 76.9231 17.702 76.3591 17.474C75.8071 17.258 75.3691 16.988 75.0451 16.664C74.7211 16.352 74.4811 16.034 74.3251 15.71C74.1691 15.386 74.0671 15.116 74.0191 14.9C73.9711 14.684 73.9471 14.576 73.9471 14.576H76.2871C76.2871 14.576 76.3111 14.642 76.3591 14.774C76.4071 14.906 76.5031 15.056 76.6471 15.224C76.8031 15.404 77.0251 15.56 77.3131 15.692C77.6011 15.824 77.9851 15.89 78.4651 15.89C79.3051 15.89 79.9111 15.65 80.2831 15.17C80.6551 14.69 80.8411 14.108 80.8411 13.424V12.362H80.7331C80.6011 12.566 80.4091 12.788 80.1571 13.028C79.9171 13.268 79.5991 13.472 79.2031 13.64C78.8191 13.808 78.3511 13.892 77.7991 13.892C77.0911 13.892 76.4731 13.754 75.9451 13.478C75.4171 13.202 74.9731 12.836 74.6131 12.38C74.2531 11.924 73.9831 11.414 73.8031 10.85C73.6351 10.274 73.5511 9.686 73.5511 9.086C73.5511 8.486 73.6351 7.904 73.8031 7.34C73.9831 6.764 74.2531 6.248 74.6131 5.792C74.9731 5.324 75.4171 4.958 75.9451 4.694C76.4731 4.418 77.0911 4.28 77.7991 4.28C78.3511 4.28 78.8191 4.364 79.2031 4.532C79.5991 4.7 79.9171 4.904 80.1571 5.144C80.4091 5.372 80.6011 5.588 80.7331 5.792H80.8411V4.46H83.2351V13.406C83.2351 14.234 83.0611 14.978 82.7131 15.638C82.3651 16.31 81.8371 16.838 81.1291 17.222C80.4331 17.618 79.5511 17.816 78.4831 17.816ZM78.4291 11.966C78.9691 11.966 79.4191 11.828 79.7791 11.552C80.1391 11.264 80.4091 10.904 80.5891 10.472C80.7691 10.028 80.8591 9.566 80.8591 9.086C80.8591 8.594 80.7691 8.132 80.5891 7.7C80.4091 7.256 80.1391 6.896 79.7791 6.62C79.4191 6.344 78.9691 6.206 78.4291 6.206C77.8771 6.206 77.4151 6.344 77.0431 6.62C76.6831 6.896 76.4131 7.256 76.2331 7.7C76.0531 8.132 75.9631 8.594 75.9631 9.086C75.9631 9.566 76.0531 10.028 76.2331 10.472C76.4131 10.904 76.6831 11.264 77.0431 11.552C77.4151 11.828 77.8771 11.966 78.4291 11.966ZM85.6524 14V0.319999H88.0464V5.828H88.1544C88.2504 5.66 88.4004 5.456 88.6044 5.216C88.8084 4.964 89.0904 4.748 89.4504 4.568C89.8104 4.376 90.2664 4.28 90.8184 4.28C91.5504 4.28 92.1504 4.448 92.6184 4.784C93.0984 5.108 93.4524 5.54 93.6804 6.08C93.9204 6.62 94.0404 7.202 94.0404 7.826V14H91.6464V8.15C91.6464 7.634 91.5024 7.19 91.2144 6.818C90.9264 6.446 90.4944 6.26 89.9184 6.26C89.4744 6.26 89.1144 6.374 88.8384 6.602C88.5624 6.818 88.3584 7.1 88.2264 7.448C88.1064 7.796 88.0464 8.162 88.0464 8.546V14H85.6524ZM100.356 14.18C99.7085 14.18 99.1745 14.084 98.7545 13.892C98.3345 13.7 98.0045 13.448 97.7645 13.136C97.5365 12.824 97.3745 12.482 97.2785 12.11C97.1825 11.738 97.1345 11.372 97.1345 11.012V6.386H95.4965V4.46H97.1345V2.084H99.5285V4.46H101.67V6.386H99.5285V10.958C99.5285 11.81 100.008 12.236 100.968 12.236C101.196 12.236 101.406 12.224 101.598 12.2C101.802 12.164 101.904 12.146 101.904 12.146V14.018C101.904 14.018 101.748 14.042 101.436 14.09C101.136 14.15 100.776 14.18 100.356 14.18ZM104.579 10.22L104.345 0.68H106.901L106.613 10.22H104.579ZM105.623 14.162C105.227 14.162 104.903 14.03 104.651 13.766C104.399 13.502 104.273 13.19 104.273 12.83C104.273 12.458 104.399 12.14 104.651 11.876C104.903 11.612 105.227 11.48 105.623 11.48C106.007 11.48 106.325 11.612 106.577 11.876C106.841 12.14 106.973 12.458 106.973 12.83C106.973 13.202 106.841 13.52 106.577 13.784C106.325 14.036 106.007 14.162 105.623 14.162Z" fill="#1FDC84"/>
</svg>
