<svg width="40" height="40" viewBox="0 0 40 40" fill="none" xmlns="http://www.w3.org/2000/svg">
<path d="M28.5313 12.3302C30.4454 10.4161 33.4376 10.088 35.0235 10.0646C35.6563 10.0567 36.1173 10.5177 36.1095 11.1505C36.0782 12.7286 35.7579 15.7208 33.8438 17.6427C31.9298 19.5646 28.9376 19.8849 27.3517 19.9083C26.7188 19.9161 26.2579 19.4552 26.2657 18.8224C26.297 17.2442 26.6173 14.2442 28.5313 12.3302Z" fill="url(#paint0_linear_24443_8413)"/>
<path d="M30.3442 16.0958C32.6958 14.7442 35.6645 15.2129 37.2036 15.5958C37.8208 15.752 38.1411 16.3145 37.9692 16.9239C37.5317 18.4395 36.438 21.2442 34.0864 22.5958C31.7348 23.9473 28.7661 23.4786 27.227 23.0958C26.6098 22.9395 26.2895 22.377 26.4614 21.7676C26.8989 20.252 28.0005 17.4473 30.3442 16.0958Z" fill="url(#paint1_linear_24443_8413)"/>
<path d="M31.3914 19.4248C34.0711 19.0029 36.6805 20.5029 37.9695 21.4091C38.493 21.7763 38.5945 22.417 38.2039 22.9248C37.2508 24.1826 35.2273 26.4091 32.5477 26.831C29.868 27.2529 27.2586 25.7529 25.9695 24.8466C25.4461 24.4795 25.3445 23.8388 25.7352 23.331C26.6883 22.0732 28.7117 19.8466 31.3914 19.4248Z" fill="url(#paint2_linear_24443_8413)"/>
<path d="M29.8128 22.4927C32.3675 23.399 33.9535 25.9536 34.6566 27.3677C34.9378 27.938 34.7269 28.5474 34.1488 28.813C32.7113 29.4693 29.8675 30.4693 27.3128 29.563C24.7581 28.6568 23.1722 26.0943 22.4691 24.688C22.1878 24.1177 22.3988 23.5005 22.9769 23.2427C24.4144 22.5786 27.2581 21.5865 29.8128 22.4927Z" fill="url(#paint3_linear_24443_8413)"/>
<path d="M11.4693 12.3302C9.55527 10.4161 6.56309 10.088 4.97715 10.0646C4.34434 10.0567 3.8834 10.5177 3.89121 11.1505C3.92246 12.7286 4.24277 15.7208 6.15684 17.6427C8.0709 19.5646 11.0631 19.8849 12.649 19.9083C13.2818 19.9161 13.7428 19.4552 13.735 18.8224C13.7037 17.2442 13.3834 14.2442 11.4693 12.3302Z" fill="url(#paint4_linear_24443_8413)"/>
<path d="M9.65695 16.0958C7.30539 14.7442 4.32883 15.2129 2.79758 15.5958C2.18039 15.752 1.86008 16.3145 2.03195 16.9239C2.46945 18.4395 3.5632 21.2442 5.91476 22.5958C8.26633 23.9473 11.2429 23.4786 12.7741 23.0958C13.3913 22.9395 13.7195 22.377 13.5398 21.7676C13.0945 20.252 12.0007 17.4473 9.65695 16.0958Z" fill="url(#paint5_linear_24443_8413)"/>
<path d="M8.61015 19.4248C5.93828 19.0029 3.3289 20.5029 2.03203 21.4091C1.50859 21.7763 1.40703 22.417 1.79765 22.9248C2.75078 24.1826 4.77422 26.4091 7.4539 26.831C10.1336 27.2529 12.743 25.7529 14.032 24.8466C14.5555 24.4795 14.6492 23.8388 14.2742 23.331C13.3133 22.0732 11.2898 19.8466 8.61015 19.4248Z" fill="url(#paint6_linear_24443_8413)"/>
<path d="M10.1881 22.4927C7.63346 23.399 6.04752 25.9536 5.34439 27.3677C5.06314 27.938 5.28189 28.5474 5.86002 28.813C7.29752 29.4693 10.1413 30.4693 12.696 29.563C15.2506 28.6568 16.8366 26.0943 17.5397 24.688C17.821 24.1177 17.61 23.5005 17.0241 23.2427C15.5866 22.5786 12.7428 21.5865 10.1881 22.4927Z" fill="url(#paint7_linear_24443_8413)"/>
<path d="M18.5156 6.11328L11.3125 9.06641C9.84375 9.66797 8.89062 11.0977 8.89062 12.6836V22.1523C8.89062 30.668 16.3203 33.3555 19.0312 34.0508C19.6719 34.2148 20.3359 34.2148 20.9766 34.0508C23.6875 33.3555 31.1172 30.668 31.1172 22.1523V12.6836C31.1172 11.0977 30.1562 9.66797 28.6953 9.06641L21.4844 6.11328C20.5312 5.72266 19.4688 5.72266 18.5156 6.11328Z" fill="url(#paint8_linear_24443_8413)"/>
<path d="M20 32.2148C19.8359 32.2148 19.6719 32.1914 19.5156 32.1523C18.3516 31.8555 16.1016 31.1133 14.1875 29.5273C11.9688 27.6836 10.8359 25.1992 10.8359 22.1523V12.6836C10.8359 11.8867 11.3125 11.1758 12.0469 10.8789L19.25 7.92578C19.4844 7.83203 19.7344 7.77734 19.9922 7.77734C20.25 7.77734 20.5 7.82422 20.7344 7.92578L27.9375 10.8789C28.6719 11.1836 29.1484 11.8867 29.1484 12.6836V22.1523C29.1484 25.207 28.0234 27.6836 25.7969 29.5273C23.8828 31.1133 21.6406 31.8555 20.4688 32.1523C20.3281 32.1992 20.1641 32.2148 20 32.2148Z" fill="#AEAEAE"/>
<path d="M20.0005 27.418C24.0995 27.418 27.4224 24.0951 27.4224 19.9961C27.4224 15.8971 24.0995 12.5742 20.0005 12.5742C15.9015 12.5742 12.5786 15.8971 12.5786 19.9961C12.5786 24.0951 15.9015 27.418 20.0005 27.418Z" fill="url(#paint9_linear_24443_8413)"/>
<path d="M17.3434 23.9961V22.9361L18.6234 21.8461C19.1568 21.3994 19.6134 21.0194 19.9934 20.7061C20.3734 20.3928 20.6634 20.0994 20.8634 19.8261C21.0634 19.5528 21.1634 19.2594 21.1634 18.9461C21.1634 18.7061 21.1068 18.5061 20.9934 18.3461C20.8801 18.1794 20.7334 18.0561 20.5534 17.9761C20.3801 17.8894 20.1968 17.8461 20.0034 17.8461C19.7701 17.8461 19.5734 17.8894 19.4134 17.9761C19.2601 18.0628 19.1368 18.1761 19.0434 18.3161C18.9568 18.4494 18.8934 18.5894 18.8534 18.7361C18.8134 18.8828 18.7934 19.0094 18.7934 19.1161H17.3134C17.3134 18.8361 17.3668 18.5461 17.4734 18.2461C17.5801 17.9394 17.7434 17.6561 17.9634 17.3961C18.1834 17.1294 18.4668 16.9128 18.8134 16.7461C19.1601 16.5794 19.5734 16.4961 20.0534 16.4961C20.5401 16.4961 20.9834 16.5928 21.3834 16.7861C21.7834 16.9728 22.1034 17.2428 22.3434 17.5961C22.5901 17.9494 22.7134 18.3661 22.7134 18.8461C22.7134 19.2994 22.6001 19.7128 22.3734 20.0861C22.1534 20.4528 21.8434 20.8128 21.4434 21.1661C21.0434 21.5128 20.5834 21.8894 20.0634 22.2961L19.6434 22.6461H22.8134V23.9961H17.3434Z" fill="#7C7979"/>
<defs>
<linearGradient id="paint0_linear_24443_8413" x1="31.1876" y1="10.0645" x2="31.1876" y2="19.9084" gradientUnits="userSpaceOnUse">
<stop stop-color="#AEAEAE"/>
<stop offset="1" stop-color="#656464"/>
</linearGradient>
<linearGradient id="paint1_linear_24443_8413" x1="32.2153" y1="15.1953" x2="32.2153" y2="23.4962" gradientUnits="userSpaceOnUse">
<stop stop-color="#AEAEAE"/>
<stop offset="1" stop-color="#656464"/>
</linearGradient>
<linearGradient id="paint2_linear_24443_8413" x1="31.9695" y1="19.3516" x2="31.9695" y2="26.9042" gradientUnits="userSpaceOnUse">
<stop stop-color="#AEAEAE"/>
<stop offset="1" stop-color="#656464"/>
</linearGradient>
<linearGradient id="paint3_linear_24443_8413" x1="28.5628" y1="22.1289" x2="28.5628" y2="29.9254" gradientUnits="userSpaceOnUse">
<stop stop-color="#AEAEAE"/>
<stop offset="1" stop-color="#656464"/>
</linearGradient>
<linearGradient id="paint4_linear_24443_8413" x1="8.81309" y1="10.0645" x2="8.81309" y2="19.9084" gradientUnits="userSpaceOnUse">
<stop stop-color="#AEAEAE"/>
<stop offset="1" stop-color="#656464"/>
</linearGradient>
<linearGradient id="paint5_linear_24443_8413" x1="7.78729" y1="15.1953" x2="7.78729" y2="23.4962" gradientUnits="userSpaceOnUse">
<stop stop-color="#AEAEAE"/>
<stop offset="1" stop-color="#656464"/>
</linearGradient>
<linearGradient id="paint6_linear_24443_8413" x1="8.03116" y1="19.3516" x2="8.03116" y2="26.9042" gradientUnits="userSpaceOnUse">
<stop stop-color="#AEAEAE"/>
<stop offset="1" stop-color="#656464"/>
</linearGradient>
<linearGradient id="paint7_linear_24443_8413" x1="11.4428" y1="22.1289" x2="11.4428" y2="29.9254" gradientUnits="userSpaceOnUse">
<stop stop-color="#AEAEAE"/>
<stop offset="1" stop-color="#656464"/>
</linearGradient>
<linearGradient id="paint8_linear_24443_8413" x1="8.89063" y1="5.82031" x2="35.0391" y2="9.95366" gradientUnits="userSpaceOnUse">
<stop stop-color="#AEAEAE"/>
<stop offset="0.400005" stop-color="#F5F5F5"/>
<stop offset="0.76629" stop-color="#D0D0D0"/>
<stop offset="1" stop-color="#E9E9E9"/>
</linearGradient>
<linearGradient id="paint9_linear_24443_8413" x1="20.0005" y1="27.4184" x2="20.0005" y2="12.5746" gradientUnits="userSpaceOnUse">
<stop stop-color="#B2B2B2"/>
<stop offset="1" stop-color="#D7D7D7"/>
</linearGradient>
</defs>
</svg>
