<svg width="40" height="40" viewBox="0 0 40 40" fill="none" xmlns="http://www.w3.org/2000/svg">
<path d="M28.5315 12.3302C30.4455 10.4161 33.4377 10.088 35.0237 10.0646C35.6565 10.0567 36.1174 10.5177 36.1096 11.1505C36.0783 12.7286 35.758 15.7208 33.844 17.6427C31.9299 19.5646 28.9377 19.8849 27.3518 19.9083C26.719 19.9161 26.258 19.4552 26.2658 18.8224C26.2971 17.2442 26.6174 14.2442 28.5315 12.3302Z" fill="url(#paint0_linear_24460_1273)"/>
<path d="M30.3442 16.0958C32.6958 14.7442 35.6645 15.2129 37.2036 15.5958C37.8208 15.752 38.1411 16.3145 37.9692 16.9239C37.5317 18.4395 36.438 21.2442 34.0864 22.5958C31.7348 23.9473 28.7661 23.4786 27.227 23.0958C26.6098 22.9395 26.2895 22.377 26.4614 21.7676C26.8989 20.252 28.0005 17.4473 30.3442 16.0958Z" fill="url(#paint1_linear_24460_1273)"/>
<path d="M31.3913 19.4248C34.071 19.0029 36.6803 20.5029 37.9694 21.4091C38.4928 21.7763 38.5944 22.417 38.2038 22.9248C37.2507 24.1826 35.2272 26.4091 32.5475 26.831C29.8678 27.2529 27.2585 25.7529 25.9694 24.8466C25.446 24.4795 25.3444 23.8388 25.735 23.331C26.6882 22.0732 28.7116 19.8466 31.3913 19.4248Z" fill="url(#paint2_linear_24460_1273)"/>
<path d="M29.8128 22.4927C32.3675 23.399 33.9535 25.9536 34.6566 27.3677C34.9378 27.938 34.7269 28.5474 34.1488 28.813C32.7113 29.4693 29.8675 30.4693 27.3128 29.563C24.7581 28.6568 23.1722 26.0943 22.4691 24.688C22.1878 24.1177 22.3988 23.5005 22.9769 23.2427C24.4144 22.5786 27.2581 21.5865 29.8128 22.4927Z" fill="url(#paint3_linear_24460_1273)"/>
<path d="M11.4693 12.3302C9.55527 10.4161 6.56309 10.088 4.97715 10.0646C4.34434 10.0567 3.8834 10.5177 3.89121 11.1505C3.92246 12.7286 4.24277 15.7208 6.15684 17.6427C8.0709 19.5646 11.0631 19.8849 12.649 19.9083C13.2818 19.9161 13.7428 19.4552 13.735 18.8224C13.7037 17.2442 13.3834 14.2442 11.4693 12.3302Z" fill="url(#paint4_linear_24460_1273)"/>
<path d="M9.65707 16.0958C7.30551 14.7442 4.32895 15.2129 2.7977 15.5958C2.18051 15.752 1.8602 16.3145 2.03207 16.9239C2.46957 18.4395 3.56332 21.2442 5.91489 22.5958C8.26645 23.9473 11.243 23.4786 12.7743 23.0958C13.3914 22.9395 13.7196 22.377 13.5399 21.7676C13.0946 20.252 12.0008 17.4473 9.65707 16.0958Z" fill="url(#paint5_linear_24460_1273)"/>
<path d="M8.61015 19.4248C5.93828 19.0029 3.3289 20.5029 2.03203 21.4091C1.50859 21.7763 1.40703 22.417 1.79765 22.9248C2.75078 24.1826 4.77422 26.4091 7.4539 26.831C10.1336 27.2529 12.743 25.7529 14.032 24.8466C14.5555 24.4795 14.6492 23.8388 14.2742 23.331C13.3133 22.0732 11.2898 19.8466 8.61015 19.4248Z" fill="url(#paint6_linear_24460_1273)"/>
<path d="M10.1881 22.4927C7.63346 23.399 6.04752 25.9536 5.34439 27.3677C5.06314 27.938 5.28189 28.5474 5.86002 28.813C7.29752 29.4693 10.1413 30.4693 12.696 29.563C15.2506 28.6568 16.8366 26.0943 17.5397 24.688C17.821 24.1177 17.61 23.5005 17.0241 23.2427C15.5866 22.5786 12.7428 21.5865 10.1881 22.4927Z" fill="url(#paint7_linear_24460_1273)"/>
<path d="M18.5156 6.11328L11.3125 9.06641C9.84375 9.66797 8.89062 11.0977 8.89062 12.6836V22.1523C8.89062 30.668 16.3203 33.3555 19.0312 34.0508C19.6719 34.2148 20.3359 34.2148 20.9766 34.0508C23.6875 33.3555 31.1172 30.668 31.1172 22.1523V12.6836C31.1172 11.0977 30.1562 9.66797 28.6953 9.06641L21.4844 6.11328C20.5312 5.72266 19.4688 5.72266 18.5156 6.11328Z" fill="url(#paint8_linear_24460_1273)"/>
<path d="M20 32.2148C19.8359 32.2148 19.6719 32.1914 19.5156 32.1523C18.3516 31.8555 16.1016 31.1133 14.1875 29.5273C11.9688 27.6836 10.8359 25.1992 10.8359 22.1523V12.6836C10.8359 11.8867 11.3125 11.1758 12.0469 10.8789L19.25 7.92578C19.4844 7.83203 19.7344 7.77734 19.9922 7.77734C20.25 7.77734 20.5 7.82422 20.7344 7.92578L27.9375 10.8789C28.6719 11.1836 29.1484 11.8867 29.1484 12.6836V22.1523C29.1484 25.207 28.0234 27.6836 25.7969 29.5273C23.8828 31.1133 21.6406 31.8555 20.4688 32.1523C20.3281 32.1992 20.1641 32.2148 20 32.2148Z" fill="#BC6C2D"/>
<path d="M20.0004 27.418C24.0994 27.418 27.4222 24.0951 27.4222 19.9961C27.4222 15.8971 24.0994 12.5742 20.0004 12.5742C15.9014 12.5742 12.5785 15.8971 12.5785 19.9961C12.5785 24.0951 15.9014 27.418 20.0004 27.418Z" fill="url(#paint9_linear_24460_1273)"/>
<path d="M20.0952 24.0961C19.6152 24.0961 19.2085 24.0361 18.8752 23.9161C18.5485 23.7961 18.2818 23.6394 18.0752 23.4461C17.8685 23.2528 17.7052 23.0494 17.5852 22.8361C17.4718 22.6161 17.3918 22.4094 17.3452 22.2161C17.3052 22.0161 17.2852 21.8528 17.2852 21.7261H18.7452C18.7452 21.8661 18.7852 22.0228 18.8652 22.1961C18.9452 22.3628 19.0785 22.5094 19.2652 22.6361C19.4585 22.7628 19.7285 22.8261 20.0752 22.8261C20.4352 22.8261 20.7318 22.7328 20.9652 22.5461C21.2052 22.3594 21.3252 22.1094 21.3252 21.7961C21.3252 21.5161 21.2218 21.2861 21.0152 21.1061C20.8152 20.9194 20.5285 20.8261 20.1552 20.8261H19.1552V19.6361H20.1652C20.4852 19.6361 20.7418 19.5494 20.9352 19.3761C21.1285 19.1961 21.2252 18.9761 21.2252 18.7161C21.2252 18.4428 21.1152 18.2161 20.8952 18.0361C20.6752 17.8494 20.4018 17.7561 20.0752 17.7561C19.7685 17.7561 19.5252 17.8228 19.3452 17.9561C19.1718 18.0894 19.0452 18.2461 18.9652 18.4261C18.8918 18.6061 18.8552 18.7628 18.8552 18.8961H17.4252C17.4252 18.7761 17.4452 18.6161 17.4852 18.4161C17.5318 18.2161 17.6118 18.0061 17.7252 17.7861C17.8385 17.5661 17.9952 17.3594 18.1952 17.1661C18.3952 16.9661 18.6485 16.8061 18.9552 16.6861C19.2685 16.5594 19.6485 16.4961 20.0952 16.4961C20.5418 16.4961 20.9652 16.5794 21.3652 16.7461C21.7718 16.9061 22.1018 17.1428 22.3552 17.4561C22.6085 17.7628 22.7352 18.1361 22.7352 18.5761C22.7352 18.8761 22.6752 19.1361 22.5552 19.3561C22.4352 19.5694 22.2885 19.7461 22.1152 19.8861C21.9418 20.0261 21.7685 20.1261 21.5952 20.1861V20.2461C21.9285 20.3661 22.2218 20.5594 22.4752 20.8261C22.7352 21.0861 22.8652 21.4394 22.8652 21.8861C22.8652 22.3528 22.7352 22.7528 22.4752 23.0861C22.2218 23.4128 21.8852 23.6628 21.4652 23.8361C21.0452 24.0094 20.5885 24.0961 20.0952 24.0961Z" fill="#98531D"/>
<defs>
<linearGradient id="paint0_linear_24460_1273" x1="31.1877" y1="10.0645" x2="31.1877" y2="19.9084" gradientUnits="userSpaceOnUse">
<stop stop-color="#BC6C2D"/>
<stop offset="1" stop-color="#753A0C"/>
</linearGradient>
<linearGradient id="paint1_linear_24460_1273" x1="32.2153" y1="15.1953" x2="32.2153" y2="23.4962" gradientUnits="userSpaceOnUse">
<stop stop-color="#BC6C2D"/>
<stop offset="1" stop-color="#753A0C"/>
</linearGradient>
<linearGradient id="paint2_linear_24460_1273" x1="31.9694" y1="19.3516" x2="31.9694" y2="26.9042" gradientUnits="userSpaceOnUse">
<stop stop-color="#BC6C2D"/>
<stop offset="1" stop-color="#753A0C"/>
</linearGradient>
<linearGradient id="paint3_linear_24460_1273" x1="28.5628" y1="22.1289" x2="28.5628" y2="29.9254" gradientUnits="userSpaceOnUse">
<stop stop-color="#BC6C2D"/>
<stop offset="1" stop-color="#753A0C"/>
</linearGradient>
<linearGradient id="paint4_linear_24460_1273" x1="8.81309" y1="10.0645" x2="8.81309" y2="19.9084" gradientUnits="userSpaceOnUse">
<stop stop-color="#BC6C2D"/>
<stop offset="1" stop-color="#753A0C"/>
</linearGradient>
<linearGradient id="paint5_linear_24460_1273" x1="7.78741" y1="15.1953" x2="7.78741" y2="23.4962" gradientUnits="userSpaceOnUse">
<stop stop-color="#BC6C2D"/>
<stop offset="1" stop-color="#753A0C"/>
</linearGradient>
<linearGradient id="paint6_linear_24460_1273" x1="8.03116" y1="19.3516" x2="8.03116" y2="26.9042" gradientUnits="userSpaceOnUse">
<stop stop-color="#BC6C2D"/>
<stop offset="1" stop-color="#753A0C"/>
</linearGradient>
<linearGradient id="paint7_linear_24460_1273" x1="11.4428" y1="22.1289" x2="11.4428" y2="29.9254" gradientUnits="userSpaceOnUse">
<stop stop-color="#BC6C2D"/>
<stop offset="1" stop-color="#753A0C"/>
</linearGradient>
<linearGradient id="paint8_linear_24460_1273" x1="8.89063" y1="5.82031" x2="35.0391" y2="9.95366" gradientUnits="userSpaceOnUse">
<stop stop-color="#AE5F25"/>
<stop offset="0.400005" stop-color="#F7BE8A"/>
<stop offset="0.76629" stop-color="#D28A47"/>
<stop offset="1" stop-color="#EDA767"/>
</linearGradient>
<linearGradient id="paint9_linear_24460_1273" x1="20.0004" y1="27.4184" x2="20.0004" y2="12.5746" gradientUnits="userSpaceOnUse">
<stop stop-color="#C8732F"/>
<stop offset="1" stop-color="#F8A665"/>
</linearGradient>
</defs>
</svg>
