<svg width="106" height="24" viewBox="0 0 106 24" fill="none" xmlns="http://www.w3.org/2000/svg">
<path d="M19.6025 12.6346C19.0439 12.5496 18.5478 12.9325 18.4677 13.4784C18.2665 14.8495 17.6337 16.1005 16.6376 17.0966C14.1024 19.6318 9.98042 19.6298 7.44622 17.0966C4.91252 14.5624 4.91252 10.4389 7.44622 7.90521C8.39932 6.95261 9.60252 6.33151 10.9491 6.10541C11.5282 5.99551 12.1508 5.97651 12.7968 6.04971C13.6838 6.15181 14.5094 6.44611 15.2628 6.87821L13.9609 7.10051C13.417 7.19381 13.0507 7.71041 13.1445 8.25481C13.2275 8.74211 13.6504 9.08631 14.1289 9.08631C14.1846 9.08631 14.2412 9.08191 14.2988 9.07211L17.789 8.47541C18.0497 8.43051 18.2831 8.28401 18.4365 8.06721C18.5898 7.85091 18.6504 7.58231 18.6054 7.32061L18.0077 3.83091C17.9159 3.28701 17.4061 2.92271 16.8534 3.01401C16.3095 3.10731 15.9432 3.62441 16.037 4.16881L16.1943 5.08731C15.2264 4.54431 14.1587 4.19301 13.0243 4.06241C12.1747 3.96571 11.3505 3.99261 10.5961 4.13711C8.85932 4.42811 7.28122 5.24211 6.03212 6.49111C2.71862 9.80461 2.71862 15.1962 6.03212 18.5106C7.68882 20.1678 9.86562 20.996 12.0419 20.996C14.2187 20.996 16.3944 20.1679 18.0517 18.5106C19.3535 17.2088 20.1816 15.5692 20.4462 13.7694C20.5264 13.2225 20.1484 12.7146 19.6025 12.6346Z" fill="#D3D3D3"/>
<path d="M31.89 17V8.292H28.698V6.64H36.986V8.292H33.794V17H31.89ZM38.5656 17V6.64H42.5976C43.3443 6.64 43.979 6.78 44.5016 7.06C45.0336 7.33067 45.435 7.704 45.7056 8.18C45.9856 8.64667 46.1256 9.174 46.1256 9.762C46.1256 10.4247 45.9483 11.0173 45.5936 11.54C45.239 12.0533 44.7256 12.4267 44.0536 12.66L46.4336 17H44.3196L42.1076 12.884H40.4696V17H38.5656ZM42.5696 8.292H40.4696V11.33H42.5696C43.1016 11.33 43.5076 11.1807 43.7876 10.882C44.0676 10.574 44.2076 10.2147 44.2076 9.804C44.2076 9.39333 44.0676 9.03867 43.7876 8.74C43.5076 8.44133 43.1016 8.292 42.5696 8.292ZM50.7208 17V13.402L47.0808 6.64H49.1528L51.6588 11.47L54.1648 6.64H56.2508L52.6108 13.402V17H50.7208ZM60.2918 17L63.8618 6.64H66.3398L69.9238 17H67.9358L67.1938 14.816H63.0218L62.2798 17H60.2918ZM63.5678 13.164H66.6478L65.1078 8.586L63.5678 13.164ZM75.6733 17.14C74.8053 17.14 74.0493 16.9907 73.4053 16.692C72.7613 16.3933 72.2246 15.992 71.7953 15.488C71.3753 14.9747 71.0579 14.4053 70.8433 13.78C70.6379 13.1453 70.5353 12.4967 70.5353 11.834C70.5353 11.1713 70.6379 10.5227 70.8433 9.888C71.0579 9.25333 71.3799 8.684 71.8093 8.18C72.2386 7.66667 72.7799 7.26067 73.4333 6.962C74.0866 6.654 74.8473 6.5 75.7153 6.5C76.3966 6.5 76.9799 6.58867 77.4653 6.766C77.9599 6.934 78.3706 7.15333 78.6973 7.424C79.0333 7.69467 79.2993 7.984 79.4953 8.292C79.7006 8.59067 79.8546 8.87533 79.9573 9.146C80.0599 9.41667 80.1299 9.64067 80.1673 9.818C80.2046 9.986 80.2233 10.07 80.2233 10.07H78.3193C78.3193 10.07 78.3006 10.0093 78.2633 9.888C78.2353 9.75733 78.1699 9.59867 78.0673 9.412C77.9646 9.22533 77.8153 9.03867 77.6193 8.852C77.4326 8.66533 77.1853 8.51133 76.8773 8.39C76.5693 8.25933 76.1866 8.194 75.7293 8.194C75.1786 8.194 74.6979 8.29667 74.2873 8.502C73.8859 8.70733 73.5499 8.98267 73.2793 9.328C73.0086 9.67333 72.8079 10.0607 72.6773 10.49C72.5466 10.9193 72.4813 11.358 72.4813 11.806C72.4813 12.4127 72.6026 12.996 72.8453 13.556C73.0879 14.116 73.4473 14.5733 73.9233 14.928C74.4086 15.2827 75.0059 15.46 75.7153 15.46C76.5366 15.46 77.1853 15.236 77.6613 14.788C78.1466 14.34 78.4219 13.7427 78.4873 12.996H75.6593V11.484H80.3353V12.254C80.3353 13.3273 80.1299 14.228 79.7193 14.956C79.3086 15.6747 78.7486 16.2207 78.0393 16.594C77.3393 16.958 76.5506 17.14 75.6733 17.14ZM81.4285 17L84.9985 6.64H87.4765L91.0605 17H89.0725L88.3305 14.816H84.1585L83.4165 17H81.4285ZM84.7045 13.164H87.7845L86.2445 8.586L84.7045 13.164ZM92.5559 17V6.64H94.4599V17H92.5559ZM96.4797 17V6.64H98.2157L102.976 13.668V6.64H104.866V17H103.13L98.3697 10.098V17H96.4797Z" fill="#D3D3D3"/>
</svg>
