<svg width="154" height="24" viewBox="0 0 154 24" fill="none" xmlns="http://www.w3.org/2000/svg">
<g clip-path="url(#clip0_40000081_99)">
<path d="M23.6 12.0004C23.6 18.6532 18.004 23.9952 11.2608 23.5776C5.48317 23.2196 0.780775 18.5172 0.423175 12.7396C0.0051752 5.99639 5.34718 0.400391 12 0.400391C13.8272 0.400391 15.5572 0.821991 17.096 1.57679C17.5084 1.77919 17.6596 2.29279 17.432 2.69199L17.4304 2.69479C17.22 3.06359 16.7608 3.20079 16.38 3.01319C14.8528 2.26119 13.1068 1.89519 11.264 2.02679C6.42397 2.37199 2.47118 6.25399 2.04038 11.0872C1.50438 17.1028 6.32517 22.152 12.2656 21.9968C17.3528 21.864 21.5992 17.8296 21.9716 12.7544C22.0684 11.436 21.9096 10.1596 21.532 8.98279C21.4124 8.60959 21.5864 8.20679 21.9368 8.03159C22.3744 7.81279 22.9108 8.03159 23.0592 8.49759C23.4104 9.60199 23.6 10.7788 23.6 12.0004Z" fill="#FF8170"/>
<path d="M23.1588 4.29992C21.7708 5.05992 20.4072 5.86792 19.1352 6.81992C16.9672 8.41192 14.9716 10.2319 13.1396 12.2039C13.4596 12.6599 13.8076 13.0919 14.1796 13.5039C14.2956 13.6479 14.5516 13.9159 14.6916 14.0359C15.3716 14.7479 16.1836 15.3079 17.0036 15.8439C17.5836 16.1679 17.7796 16.9199 17.4156 17.4799C17.0756 17.9999 16.3836 18.1519 15.8556 17.8319C14.7276 17.1639 13.6636 16.3799 12.728 15.4559C12.296 15.0119 11.884 14.5479 11.5 14.0639C11.212 14.4119 10.928 14.7599 10.648 15.1119C10.156 15.7359 9.66398 16.3959 9.24398 17.0159C8.17998 18.4679 6.03238 16.9319 7.08398 15.4559C8.03198 14.2559 9.03198 13.0999 10.0876 11.9959C9.13158 10.3719 8.43158 8.59592 8.02358 6.74792C7.73558 5.00792 10.2636 4.56392 10.5796 6.30392C10.8556 7.63592 11.3076 8.94392 11.9196 10.1759C13.8276 8.37992 15.8832 6.74792 18.0832 5.29992C19.4712 4.37192 20.9588 3.59592 22.4668 2.87592C22.8588 2.68792 23.3348 2.85592 23.5228 3.24792C23.7108 3.63992 23.5428 4.10792 23.1588 4.29992Z" fill="#FF232B"/>
</g>
<path d="M37.221 19V14.374L32.541 5.68H35.205L38.427 11.89L41.649 5.68H44.331L39.651 14.374V19H37.221ZM48.7528 19.18C47.7088 19.18 46.8208 18.946 46.0888 18.478C45.3568 18.01 44.7988 17.404 44.4148 16.66C44.0428 15.904 43.8568 15.094 43.8568 14.23C43.8568 13.366 44.0428 12.562 44.4148 11.818C44.7988 11.062 45.3568 10.45 46.0888 9.982C46.8208 9.514 47.7088 9.28 48.7528 9.28C49.8088 9.28 50.6968 9.514 51.4168 9.982C52.1488 10.45 52.7008 11.062 53.0728 11.818C53.4568 12.562 53.6488 13.366 53.6488 14.23C53.6488 15.094 53.4568 15.904 53.0728 16.66C52.7008 17.404 52.1488 18.01 51.4168 18.478C50.6968 18.946 49.8088 19.18 48.7528 19.18ZM48.7528 17.182C49.2928 17.182 49.7428 17.044 50.1028 16.768C50.4748 16.492 50.7568 16.132 50.9488 15.688C51.1408 15.232 51.2368 14.746 51.2368 14.23C51.2368 13.702 51.1408 13.216 50.9488 12.772C50.7568 12.328 50.4748 11.968 50.1028 11.692C49.7428 11.416 49.2928 11.278 48.7528 11.278C48.2248 11.278 47.7748 11.416 47.4028 11.692C47.0308 11.968 46.7488 12.328 46.5568 12.772C46.3648 13.216 46.2688 13.702 46.2688 14.23C46.2688 14.746 46.3648 15.232 46.5568 15.688C46.7488 16.132 47.0308 16.492 47.4028 16.768C47.7748 17.044 48.2248 17.182 48.7528 17.182ZM58.767 19.18C57.771 19.18 57.015 18.874 56.499 18.262C55.995 17.65 55.743 16.864 55.743 15.904V9.46H58.119V15.508C58.119 16.024 58.257 16.438 58.533 16.75C58.809 17.05 59.199 17.2 59.703 17.2C60.147 17.2 60.507 17.086 60.783 16.858C61.059 16.63 61.257 16.336 61.377 15.976C61.509 15.616 61.575 15.244 61.575 14.86V9.46H63.969V19H61.575V17.632H61.467C61.347 17.848 61.173 18.076 60.945 18.316C60.729 18.556 60.441 18.76 60.081 18.928C59.733 19.096 59.295 19.18 58.767 19.18ZM65.8059 10.63L67.2279 8.29C66.8559 8.266 66.5439 8.122 66.2919 7.858C66.0519 7.594 65.9319 7.27 65.9319 6.886C65.9319 6.478 66.0699 6.148 66.3459 5.896C66.6219 5.632 66.9579 5.5 67.3539 5.5C67.7739 5.5 68.1219 5.632 68.3979 5.896C68.6859 6.148 68.8299 6.502 68.8299 6.958C68.8299 7.342 68.6859 7.786 68.3979 8.29C68.1099 8.794 67.6359 9.508 66.9759 10.432L66.8499 10.63H65.8059ZM70.2976 19V9.46H72.6736V10.774H72.7636C72.9316 10.402 73.2076 10.06 73.5916 9.748C73.9756 9.436 74.5516 9.28 75.3196 9.28C75.5596 9.28 75.7576 9.298 75.9136 9.334C76.0696 9.358 76.1476 9.37 76.1476 9.37V11.692C76.1476 11.692 76.0576 11.68 75.8776 11.656C75.7096 11.632 75.4996 11.62 75.2476 11.62C74.4076 11.62 73.7716 11.854 73.3396 12.322C72.9076 12.79 72.6916 13.546 72.6916 14.59V19H70.2976ZM81.8842 19.18C81.0682 19.18 80.3602 19.042 79.7602 18.766C79.1722 18.478 78.6802 18.1 78.2842 17.632C77.9002 17.152 77.6122 16.618 77.4202 16.03C77.2282 15.442 77.1322 14.842 77.1322 14.23C77.1322 13.618 77.2222 13.024 77.4022 12.448C77.5942 11.86 77.8762 11.326 78.2482 10.846C78.6322 10.366 79.1182 9.988 79.7062 9.712C80.2942 9.424 80.9902 9.28 81.7942 9.28C82.6582 9.28 83.4202 9.472 84.0802 9.856C84.7402 10.24 85.2562 10.804 85.6282 11.548C86.0002 12.28 86.1862 13.192 86.1862 14.284V14.896H79.5442C79.5802 15.544 79.8022 16.108 80.2102 16.588C80.6182 17.056 81.1762 17.29 81.8842 17.29C82.2922 17.29 82.6282 17.224 82.8922 17.092C83.1562 16.96 83.3602 16.81 83.5042 16.642C83.6482 16.462 83.7502 16.312 83.8102 16.192C83.8702 16.06 83.9002 15.994 83.9002 15.994H86.1142C86.1142 15.994 86.0842 16.102 86.0242 16.318C85.9642 16.522 85.8502 16.786 85.6822 17.11C85.5262 17.422 85.2922 17.74 84.9802 18.064C84.6682 18.376 84.2602 18.64 83.7562 18.856C83.2522 19.072 82.6282 19.18 81.8842 19.18ZM79.5442 13.33H83.8822C83.8462 12.586 83.6242 12.034 83.2162 11.674C82.8082 11.314 82.3282 11.134 81.7762 11.134C81.1642 11.134 80.6542 11.332 80.2462 11.728C79.8382 12.112 79.6042 12.646 79.5442 13.33ZM94.7865 19L91.7985 9.46H94.1925L96.1005 16.012L98.1345 9.46H100.312L102.347 16.012L104.255 9.46H106.649L103.643 19H101.105L99.2325 12.934L97.3425 19H94.7865ZM108.249 19V9.46H110.625V10.774H110.715C110.883 10.402 111.159 10.06 111.543 9.748C111.927 9.436 112.503 9.28 113.271 9.28C113.511 9.28 113.709 9.298 113.865 9.334C114.021 9.358 114.099 9.37 114.099 9.37V11.692C114.099 11.692 114.009 11.68 113.829 11.656C113.661 11.632 113.451 11.62 113.199 11.62C112.359 11.62 111.723 11.854 111.291 12.322C110.859 12.79 110.643 13.546 110.643 14.59V19H108.249ZM119.979 19.18C118.935 19.18 118.047 18.946 117.315 18.478C116.583 18.01 116.025 17.404 115.641 16.66C115.269 15.904 115.083 15.094 115.083 14.23C115.083 13.366 115.269 12.562 115.641 11.818C116.025 11.062 116.583 10.45 117.315 9.982C118.047 9.514 118.935 9.28 119.979 9.28C121.035 9.28 121.923 9.514 122.643 9.982C123.375 10.45 123.927 11.062 124.299 11.818C124.683 12.562 124.875 13.366 124.875 14.23C124.875 15.094 124.683 15.904 124.299 16.66C123.927 17.404 123.375 18.01 122.643 18.478C121.923 18.946 121.035 19.18 119.979 19.18ZM119.979 17.182C120.519 17.182 120.969 17.044 121.329 16.768C121.701 16.492 121.983 16.132 122.175 15.688C122.367 15.232 122.463 14.746 122.463 14.23C122.463 13.702 122.367 13.216 122.175 12.772C121.983 12.328 121.701 11.968 121.329 11.692C120.969 11.416 120.519 11.278 119.979 11.278C119.451 11.278 119.001 11.416 118.629 11.692C118.257 11.968 117.975 12.328 117.783 12.772C117.591 13.216 117.495 13.702 117.495 14.23C117.495 14.746 117.591 15.232 117.783 15.688C117.975 16.132 118.257 16.492 118.629 16.768C119.001 17.044 119.451 17.182 119.979 17.182ZM126.899 19V9.46H129.293V10.828H129.401C129.497 10.66 129.647 10.456 129.851 10.216C130.055 9.964 130.337 9.748 130.697 9.568C131.057 9.376 131.513 9.28 132.065 9.28C132.797 9.28 133.397 9.448 133.865 9.784C134.345 10.108 134.699 10.54 134.927 11.08C135.167 11.62 135.287 12.202 135.287 12.826V19H132.893V13.15C132.893 12.634 132.749 12.19 132.461 11.818C132.173 11.446 131.741 11.26 131.165 11.26C130.721 11.26 130.361 11.374 130.085 11.602C129.809 11.818 129.605 12.1 129.473 12.448C129.353 12.796 129.293 13.162 129.293 13.546V19H126.899ZM142.234 22.816C141.382 22.816 140.674 22.702 140.11 22.474C139.558 22.258 139.12 21.988 138.796 21.664C138.472 21.352 138.232 21.034 138.076 20.71C137.92 20.386 137.818 20.116 137.77 19.9C137.722 19.684 137.698 19.576 137.698 19.576H140.038C140.038 19.576 140.062 19.642 140.11 19.774C140.158 19.906 140.254 20.056 140.398 20.224C140.554 20.404 140.776 20.56 141.064 20.692C141.352 20.824 141.736 20.89 142.216 20.89C143.056 20.89 143.662 20.65 144.034 20.17C144.406 19.69 144.592 19.108 144.592 18.424V17.362H144.484C144.352 17.566 144.16 17.788 143.908 18.028C143.668 18.268 143.35 18.472 142.954 18.64C142.57 18.808 142.102 18.892 141.55 18.892C140.842 18.892 140.224 18.754 139.696 18.478C139.168 18.202 138.724 17.836 138.364 17.38C138.004 16.924 137.734 16.414 137.554 15.85C137.386 15.274 137.302 14.686 137.302 14.086C137.302 13.486 137.386 12.904 137.554 12.34C137.734 11.764 138.004 11.248 138.364 10.792C138.724 10.324 139.168 9.958 139.696 9.694C140.224 9.418 140.842 9.28 141.55 9.28C142.102 9.28 142.57 9.364 142.954 9.532C143.35 9.7 143.668 9.904 143.908 10.144C144.16 10.372 144.352 10.588 144.484 10.792H144.592V9.46H146.986V18.406C146.986 19.234 146.812 19.978 146.464 20.638C146.116 21.31 145.588 21.838 144.88 22.222C144.184 22.618 143.302 22.816 142.234 22.816ZM142.18 16.966C142.72 16.966 143.17 16.828 143.53 16.552C143.89 16.264 144.16 15.904 144.34 15.472C144.52 15.028 144.61 14.566 144.61 14.086C144.61 13.594 144.52 13.132 144.34 12.7C144.16 12.256 143.89 11.896 143.53 11.62C143.17 11.344 142.72 11.206 142.18 11.206C141.628 11.206 141.166 11.344 140.794 11.62C140.434 11.896 140.164 12.256 139.984 12.7C139.804 13.132 139.714 13.594 139.714 14.086C139.714 14.566 139.804 15.028 139.984 15.472C140.164 15.904 140.434 16.264 140.794 16.552C141.166 16.828 141.628 16.966 142.18 16.966ZM149.943 15.22L149.709 5.68H152.265L151.977 15.22H149.943ZM150.987 19.162C150.591 19.162 150.267 19.03 150.015 18.766C149.763 18.502 149.637 18.19 149.637 17.83C149.637 17.458 149.763 17.14 150.015 16.876C150.267 16.612 150.591 16.48 150.987 16.48C151.371 16.48 151.689 16.612 151.941 16.876C152.205 17.14 152.337 17.458 152.337 17.83C152.337 18.202 152.205 18.52 151.941 18.784C151.689 19.036 151.371 19.162 150.987 19.162Z" fill="#FF232B"/>
<defs>
<clipPath id="clip0_40000081_99">
<rect width="24" height="24" fill="white"/>
</clipPath>
</defs>
</svg>
